<svg id="Layer_1" data-name="Layer 1" xmlns="http://www.w3.org/2000/svg" viewBox="0 0 792 530">
  <defs>
    <style>
      .cls-1 {
        fill: #231f20;
      }

      .cls-2 {
        fill: #ec008c;
      }

      .cls-3 {
        fill: #f15a29;
      }

      .cls-4 {
        fill: #00a651;
      }

      .cls-5 {
        fill: #be1e2d;
      }

      .cls-6 {
        fill: #1c75bc;
      }

      .cls-7 {
        fill: #27aae1;
      }
    </style>
  </defs>
  <path id="DID" class="cls-1" d="M35.72,55.08H58.46a27.16,27.16,0,0,1,10.86,1.83,17.61,17.61,0,0,1,6.84,5.23,21.73,21.73,0,0,1,3.92,7.94,36.92,36.92,0,0,1,1.22,9.6q0,7.93-1.81,12.31a20.41,20.41,0,0,1-5,7.33,16.43,16.43,0,0,1-6.89,3.94,35.52,35.52,0,0,1-9.12,1.35H35.72ZM51,66.3V93.36h3.75q4.8,0,6.82-1.07a7.23,7.23,0,0,0,3.18-3.71c.76-1.77,1.15-4.64,1.15-8.6q0-7.87-2.57-10.78t-8.52-2.9ZM90,55.08h15.33v49.53H90Zm26.51,0H139.2a27.16,27.16,0,0,1,10.86,1.83,17.61,17.61,0,0,1,6.84,5.23,21.73,21.73,0,0,1,3.92,7.94,36.92,36.92,0,0,1,1.22,9.6q0,7.93-1.81,12.31a20.28,20.28,0,0,1-5,7.33,16.43,16.43,0,0,1-6.89,3.94,35.46,35.46,0,0,1-9.12,1.35H116.46ZM131.77,66.3V93.36h3.75q4.8,0,6.82-1.07a7.23,7.23,0,0,0,3.18-3.71c.76-1.77,1.15-4.64,1.15-8.6q0-7.87-2.57-10.78t-8.51-2.9Z"/>
  <path id="YOU1" class="cls-1" d="M175.33,55.68h7.81l4.58,7.68,4.59-7.68h7.77l-8.85,13.23v9.53h-7V68.91Zm24.22,11.39q0-5.56,3.11-8.67t8.64-3.11q5.69,0,8.76,3.05t3.07,8.55a14.05,14.05,0,0,1-1.34,6.54,9.58,9.58,0,0,1-3.88,4,12.78,12.78,0,0,1-6.33,1.42,14.53,14.53,0,0,1-6.37-1.22,9.64,9.64,0,0,1-4.09-3.88A13,13,0,0,1,199.55,67.07Zm7,0c0,2.29.42,3.94,1.28,5a4.86,4.86,0,0,0,7,0q1.24-1.49,1.24-5.29a7,7,0,0,0-1.3-4.7,4.41,4.41,0,0,0-3.51-1.48,4.29,4.29,0,0,0-3.42,1.5C207,63.13,206.59,64.79,206.59,67.11Zm35.13-11.43h7V69.24a11.45,11.45,0,0,1-.63,3.81,8.24,8.24,0,0,1-2,3.13,7.79,7.79,0,0,1-2.82,1.88,14.05,14.05,0,0,1-4.92.76,29.93,29.93,0,0,1-3.62-.23,9.36,9.36,0,0,1-3.28-.92,8.36,8.36,0,0,1-2.42-2,7.09,7.09,0,0,1-1.49-2.63,13.33,13.33,0,0,1-.66-3.84V55.68h7V69.56a4,4,0,0,0,1,2.91,4.42,4.42,0,0,0,5.71,0,3.93,3.93,0,0,0,1-2.92Z"/>
  <path id="EVER" class="cls-1" d="M181.78,90.78h14.44V94.5h-9v2.77h8.38v3.56h-8.38v3.43h9.3v3.95h-14.7Zm15.89,0h5.63l3.92,12.54,3.87-12.54h5.47l-6.47,17.43h-5.84Zm20.64,0h14.43V94.5h-9v2.77h8.38v3.56H223.7v3.43H233v3.95H218.31ZM236,108.21V90.78h9a12.84,12.84,0,0,1,3.81.43,4,4,0,0,1,2.13,1.59,4.79,4.79,0,0,1,.81,2.82,4.68,4.68,0,0,1-2.32,4.21,6.38,6.38,0,0,1-1.89.69,5.33,5.33,0,0,1,1.4.64,5,5,0,0,1,.86.92,6.75,6.75,0,0,1,.76,1.08l2.61,5H247l-2.88-5.33a4.09,4.09,0,0,0-1-1.34,2.26,2.26,0,0,0-1.32-.4h-.48v7.07Zm5.41-10.37h2.27a8.76,8.76,0,0,0,1.43-.23,1.45,1.45,0,0,0,.87-.55,1.6,1.6,0,0,0,.34-1,1.63,1.63,0,0,0-.53-1.3,3.26,3.26,0,0,0-2-.45h-2.37Z"/>
  <path id="TAKE" class="cls-1" d="M38,121.25h8.07v2.12h-2.7v6.47H40.73v-6.47H38Zm13.74,7.17h-3l-.42,1.42H45.62l3.23-8.59h2.89L55,129.84H52.19Zm-.55-1.86-1-3.08-.94,3.08Zm4.62-5.31h2.65v3.25l2.78-3.25h3.53l-3.13,3.24,3.27,5.35H61.66l-1.81-3.53-1.37,1.43v2.1H55.83Zm10,0h7.12v1.83H68.46v1.37H72.6v1.75H68.46v1.69h4.59v2H65.8Z"/>
  <path id="MRS1" class="cls-2" d="M83.4,121.25h3.49l1.35,5.23,1.33-5.23h3.49v8.59H90.89v-6.55l-1.68,6.55h-2l-1.68-6.55v6.55H83.4Zm11.39,8.59v-8.59h4.42a6.56,6.56,0,0,1,1.89.21,2,2,0,0,1,1,.78,2.35,2.35,0,0,1,.4,1.39,2.45,2.45,0,0,1-.3,1.24,2.59,2.59,0,0,1-.84.84,3.51,3.51,0,0,1-.93.34,2.86,2.86,0,0,1,.69.31,2.55,2.55,0,0,1,.42.46,2.74,2.74,0,0,1,.37.53l1.29,2.49h-3l-1.42-2.63a2,2,0,0,0-.48-.66,1.14,1.14,0,0,0-.65-.2h-.23v3.49Zm2.67-5.11h1.12a3.94,3.94,0,0,0,.7-.12.67.67,0,0,0,.43-.27.8.8,0,0,0,.17-.5.76.76,0,0,0-.27-.63,1.55,1.55,0,0,0-1-.23H97.46Zm6.17,2.27,2.52-.16a2,2,0,0,0,.34.94,1.41,1.41,0,0,0,1.17.52,1.26,1.26,0,0,0,.87-.27.76.76,0,0,0,0-1.21,3.27,3.27,0,0,0-1.36-.5,5.61,5.61,0,0,1-2.49-1,2.08,2.08,0,0,1-.75-1.65,2.26,2.26,0,0,1,.38-1.25,2.48,2.48,0,0,1,1.16-.93,5.42,5.42,0,0,1,2.11-.34,4.3,4.3,0,0,1,2.51.62,2.6,2.6,0,0,1,1,1.94l-2.5.15a1.18,1.18,0,0,0-1.3-1.11,1.06,1.06,0,0,0-.7.2.6.6,0,0,0-.24.48.5.5,0,0,0,.2.37,2.24,2.24,0,0,0,.89.31,10.85,10.85,0,0,1,2.49.76,2.67,2.67,0,0,1,1.1,1,2.42,2.42,0,0,1,.34,1.27,2.72,2.72,0,0,1-.46,1.53,3,3,0,0,1-1.27,1.06,5.19,5.19,0,0,1-2.07.36,4.28,4.28,0,0,1-3-.85A3.31,3.31,0,0,1,103.63,127Zm9,.45h2.55v2.39H112.6Z"/>
  <path id="WINDHAM1" class="cls-2" d="M122.63,121.25h2.52l.91,4.81,1.33-4.81h2.51l1.33,4.8.91-4.8h2.51l-1.9,8.59h-2.6l-1.51-5.41-1.5,5.41h-2.6Zm13,0h2.66v8.59h-2.66Zm4.58,0h2.48l3.23,4.75v-4.75h2.51v8.59h-2.51l-3.21-4.72v4.72h-2.5Zm10,0h3.95a4.54,4.54,0,0,1,1.88.32,3.06,3.06,0,0,1,1.19.9,3.88,3.88,0,0,1,.68,1.38,6.4,6.4,0,0,1,.21,1.66,6,6,0,0,1-.31,2.14,3.5,3.5,0,0,1-.87,1.27,2.86,2.86,0,0,1-1.2.68,6,6,0,0,1-1.58.24h-3.95Zm2.66,1.94v4.7h.65a2.6,2.6,0,0,0,1.18-.19,1.18,1.18,0,0,0,.55-.64,3.89,3.89,0,0,0,.2-1.49,2.94,2.94,0,0,0-.44-1.87,1.88,1.88,0,0,0-1.48-.51Zm6.66-1.94h2.65v3h2.9v-3h2.67v8.59h-2.67v-3.48h-2.9v3.48h-2.65Zm15.26,7.17h-3l-.42,1.42h-2.71l3.23-8.59h2.89l3.23,8.59h-2.78Zm-.55-1.86-1-3.08-.94,3.08Zm4.57-5.31h3.5l1.34,5.23,1.34-5.23h3.49v8.59H186.3v-6.55l-1.67,6.55h-2L181,123.29v6.55h-2.18Z"/>
  <path id="ON" class="cls-1" d="M198.63,125.55a4.08,4.08,0,0,1,4.44-4.45,4.5,4.5,0,0,1,3.3,1.15,4.33,4.33,0,0,1,1.16,3.23A5.27,5.27,0,0,1,207,128a3.66,3.66,0,0,1-1.47,1.5,4.8,4.8,0,0,1-2.39.54,5.46,5.46,0,0,1-2.4-.47,3.54,3.54,0,0,1-1.54-1.46A4.83,4.83,0,0,1,198.63,125.55Zm2.66,0a2.89,2.89,0,0,0,.48,1.87,1.82,1.82,0,0,0,2.64,0,3.18,3.18,0,0,0,.47-2,2.65,2.65,0,0,0-.49-1.77,1.69,1.69,0,0,0-1.33-.56,1.63,1.63,0,0,0-1.29.57A2.93,2.93,0,0,0,201.29,125.56Zm7.69-4.31h2.48l3.23,4.75v-4.75h2.51v8.59h-2.51l-3.21-4.72v4.72H209Z"/>
  <path id="A1" class="cls-1" d="M57.86,169.26H44.45l-1.86,6.3H30.53l14.36-38.21H57.77l14.36,38.21H59.77ZM55.41,161l-4.22-13.73L47,161Z"/>
  <path id="DATE" class="cls-1" d="M86.51,138.32h17.1a20.38,20.38,0,0,1,8.17,1.37,13.26,13.26,0,0,1,5.15,3.94,16.36,16.36,0,0,1,2.94,6,27.66,27.66,0,0,1,.92,7.21,25.16,25.16,0,0,1-1.36,9.26,15.53,15.53,0,0,1-3.77,5.52,12.32,12.32,0,0,1-5.19,3,27,27,0,0,1-6.86,1H86.51ZM98,146.75V167.1h2.82a11.8,11.8,0,0,0,5.14-.8,5.39,5.39,0,0,0,2.38-2.79,17.46,17.46,0,0,0,.87-6.47c0-3.94-.65-6.65-1.93-8.1s-3.42-2.19-6.41-2.19Zm49.48,22.66H134.43l-1.82,6.15H120.86l14-37.24h12.56l14,37.24h-12Zm-2.39-8L141,148l-4.07,13.39Zm13.76-23h35v9.19H182.12v28.05H170.61V147.51H158.87Zm40.17,0h30.84v8H210.57v5.92h17.91v7.6H210.57v7.34h19.87v8.43H199Zm53.73,25.56h-9.65v-1a11.72,11.72,0,0,1,.56-4,8.73,8.73,0,0,1,1.66-2.81,50.17,50.17,0,0,1,5-4.47c1.37-1.12,2.06-2.14,2.06-3.07a2.85,2.85,0,0,0-.83-2.18,3.56,3.56,0,0,0-2.5-.77,4.06,4.06,0,0,0-3,1.19,7.07,7.07,0,0,0-1.51,4.17l-9.86-1.22a13.46,13.46,0,0,1,3.95-8.75q3.45-3.31,10.56-3.32a15.64,15.64,0,0,1,8.94,2.31,9.62,9.62,0,0,1,4.63,8.34,8,8,0,0,1-1.2,4.16,20.42,20.42,0,0,1-4.87,4.91,12.72,12.72,0,0,0-3.24,3.26A6.66,6.66,0,0,0,252.77,163.88Zm-10,2.56h10.34v9.12H242.79Z"/>
  <path id="YES1" class="cls-3" d="M316.45,60.63h2.95l1.73,2.9,1.74-2.9h2.93l-3.34,5v3.6H319.8v-3.6Zm10.2,0h7.11v1.84h-4.45v1.36h4.13v1.75h-4.13v1.7h4.58v1.94h-7.24Zm8.21,5.75,2.52-.16a2,2,0,0,0,.34.94,1.39,1.39,0,0,0,1.17.52,1.3,1.3,0,0,0,.88-.27.79.79,0,0,0,.3-.61.76.76,0,0,0-.29-.6,3.35,3.35,0,0,0-1.36-.5,5.85,5.85,0,0,1-2.49-1,2.11,2.11,0,0,1-.75-1.66,2.29,2.29,0,0,1,.38-1.25,2.67,2.67,0,0,1,1.16-.93,5.48,5.48,0,0,1,2.11-.33,4.29,4.29,0,0,1,2.51.61,2.64,2.64,0,0,1,1,1.95l-2.5.14a1.4,1.4,0,0,0-.42-.84,1.32,1.32,0,0,0-.88-.26,1.08,1.08,0,0,0-.7.19.59.59,0,0,0-.23.48.47.47,0,0,0,.19.37,2.09,2.09,0,0,0,.89.31,11.38,11.38,0,0,1,2.49.76,2.69,2.69,0,0,1,1.1,1,2.37,2.37,0,0,1,.34,1.27,2.66,2.66,0,0,1-.46,1.52A2.82,2.82,0,0,1,340.92,69a5.19,5.19,0,0,1-2.07.36,4.3,4.3,0,0,1-3-.84A3.34,3.34,0,0,1,334.86,66.38Zm9,.48h2.54v2a2.89,2.89,0,0,1-.45,1.71,3.63,3.63,0,0,1-1.54,1.11l-.55-1a2.65,2.65,0,0,0,.93-.63,1.27,1.27,0,0,0,.28-.74h-1.21Z"/>
  <path id="WHERE1" class="cls-1" d="M316.42,80.08h9.2l3.31,17.54,4.85-17.54h9.16L347.8,97.6l3.32-17.52h9.15l-6.91,31.34h-9.5l-5.49-19.73-5.48,19.73h-9.5Zm47.06,0h9.68v11h10.58v-11h9.73v31.34h-9.73V98.74H373.16v12.68h-9.68Zm36.4,0h26v6.69H409.59v5h15.07v6.39H409.59v6.18h16.72v7.1H399.88Zm31.77,31.34V80.08h16.14a23.54,23.54,0,0,1,6.86.77,7.3,7.3,0,0,1,3.83,2.85,9.65,9.65,0,0,1,.34,9.58,8.73,8.73,0,0,1-3.06,3.07,11.66,11.66,0,0,1-3.4,1.24,9.44,9.44,0,0,1,2.52,1.15,10,10,0,0,1,1.55,1.65,12,12,0,0,1,1.36,2l4.69,9.08h-11l-5.17-9.58a7.36,7.36,0,0,0-1.75-2.41,4,4,0,0,0-2.38-.73h-.85v12.72Zm9.73-18.64h4.08a14.27,14.27,0,0,0,2.57-.43,2.61,2.61,0,0,0,1.57-1,3,3,0,0,0,.61-1.82,2.86,2.86,0,0,0-1-2.33,5.82,5.82,0,0,0-3.61-.81h-4.25Zm24.18-12.7h25.95v6.69H475.26v5h15.07v6.39H475.26v6.18H492v7.1H465.56Zm45.21,21.51h-8.12v-.82a10.08,10.08,0,0,1,.47-3.36,7.42,7.42,0,0,1,1.4-2.37,43.69,43.69,0,0,1,4.18-3.76c1.15-.94,1.73-1.8,1.73-2.59a2.34,2.34,0,0,0-.7-1.82,2.94,2.94,0,0,0-2.1-.65,3.38,3.38,0,0,0-2.51,1,5.82,5.82,0,0,0-1.27,3.51l-8.3-1a11.33,11.33,0,0,1,3.32-7.37q2.91-2.79,8.89-2.79a13.13,13.13,0,0,1,7.52,1.95,8.07,8.07,0,0,1,3.89,7,6.79,6.79,0,0,1-1,3.51,17.29,17.29,0,0,1-4.11,4.12,11.18,11.18,0,0,0-2.72,2.75A5.59,5.59,0,0,0,510.77,101.59Zm-8.4,2.16h8.7v7.67h-8.7Z"/>
  <path id="A" class="cls-3" d="M369.19,67.8h-3l-.42,1.42h-2.71l3.23-8.59h2.89l3.23,8.59h-2.78ZM368.64,66l-.95-3.09L366.76,66Z"/>
  <path id="RESTAURANT" class="cls-3" d="M381.2,69.22V60.63h4.42a6.43,6.43,0,0,1,1.88.21,1.93,1.93,0,0,1,1.05.79A2.33,2.33,0,0,1,389,63a2.27,2.27,0,0,1-1.14,2.07,3.19,3.19,0,0,1-.93.34,2.82,2.82,0,0,1,.69.32,2.78,2.78,0,0,1,.42.45,3.08,3.08,0,0,1,.37.53l1.29,2.49h-3l-1.42-2.62a2,2,0,0,0-.48-.66,1.07,1.07,0,0,0-.65-.2h-.23v3.48Zm2.67-5.11H385a4.58,4.58,0,0,0,.71-.11.76.76,0,0,0,.43-.27.82.82,0,0,0,.17-.5.78.78,0,0,0-.27-.64,1.56,1.56,0,0,0-1-.22h-1.16Zm6.62-3.48h7.12v1.84h-4.46v1.36h4.13v1.75h-4.13v1.7h4.58v1.94h-7.24Zm8.21,5.75,2.53-.16a1.89,1.89,0,0,0,.33.94,1.39,1.39,0,0,0,1.17.52,1.3,1.3,0,0,0,.88-.27.8.8,0,0,0,.31-.61.77.77,0,0,0-.3-.6,3.35,3.35,0,0,0-1.36-.5,5.85,5.85,0,0,1-2.49-1A2.11,2.11,0,0,1,399,63a2.22,2.22,0,0,1,.39-1.25,2.58,2.58,0,0,1,1.15-.93,5.52,5.52,0,0,1,2.11-.33,4.29,4.29,0,0,1,2.51.61,2.64,2.64,0,0,1,1,1.95l-2.5.14a1.4,1.4,0,0,0-.42-.84,1.3,1.3,0,0,0-.88-.26,1.08,1.08,0,0,0-.7.19.62.62,0,0,0-.23.48.47.47,0,0,0,.19.37,2.15,2.15,0,0,0,.89.31,11.69,11.69,0,0,1,2.5.76,2.66,2.66,0,0,1,1.09,1,2.37,2.37,0,0,1,.34,1.27A2.73,2.73,0,0,1,406,68,2.85,2.85,0,0,1,404.76,69a5.19,5.19,0,0,1-2.07.36,4.26,4.26,0,0,1-3-.84A3.35,3.35,0,0,1,398.7,66.38Zm8.53-5.75h8.06v2.12h-2.7v6.47h-2.66V62.75h-2.7ZM421,67.8h-3l-.42,1.42h-2.71l3.23-8.59h2.89l3.23,8.59h-2.78ZM420.41,66l-1-3.09L418.53,66Zm9.78-5.32h2.65v5.12a4.53,4.53,0,0,1-.23,1.44,3.13,3.13,0,0,1-.75,1.18,3,3,0,0,1-1.06.71,5.42,5.42,0,0,1-1.86.29,11.49,11.49,0,0,1-1.37-.09,3.56,3.56,0,0,1-1.24-.35,3.12,3.12,0,0,1-.91-.74,2.76,2.76,0,0,1-.56-1,4.9,4.9,0,0,1-.25-1.45V60.63h2.65v5.24a1.49,1.49,0,0,0,.39,1.1,1.71,1.71,0,0,0,2.16,0,1.54,1.54,0,0,0,.38-1.11Zm4.45,8.59V60.63h4.42a6.43,6.43,0,0,1,1.88.21,2,2,0,0,1,1.05.79,2.61,2.61,0,0,1,.09,2.62,2.3,2.3,0,0,1-.83.84,3.16,3.16,0,0,1-.94.34,2.5,2.5,0,0,1,.69.32,2.72,2.72,0,0,1,.43.45,3.8,3.8,0,0,1,.37.53l1.29,2.49h-3l-1.42-2.62a2,2,0,0,0-.48-.66,1.07,1.07,0,0,0-.65-.2h-.24v3.48Zm2.66-5.11h1.12a4.51,4.51,0,0,0,.7-.11.78.78,0,0,0,.44-.27.89.89,0,0,0-.1-1.14,1.6,1.6,0,0,0-1-.22H437.3Zm11.92,3.69h-3l-.42,1.42h-2.71l3.23-8.59h2.9l3.23,8.59h-2.78ZM448.67,66l-.95-3.09L446.78,66Zm4.62-5.32h2.48L459,65.38V60.63h2.5v8.59H459l-3.22-4.71v4.71h-2.49Zm9.37,0h8.07v2.12H468v6.47h-2.65V62.75h-2.71Z"/>
  <path id="IN" class="cls-3" d="M480.9,60.63h2.66v8.59H480.9Zm4.58,0H488l3.23,4.75V60.63h2.5v8.59h-2.5L488,64.51v4.71h-2.49Z"/>
  <path id="CONCORD" class="cls-3" d="M323,126.48l2.33.71a4.46,4.46,0,0,1-.74,1.63,3.17,3.17,0,0,1-1.25,1,4.73,4.73,0,0,1-1.9.33,5.53,5.53,0,0,1-2.29-.4,3.64,3.64,0,0,1-1.53-1.43,4.88,4.88,0,0,1-.65-2.63,4.46,4.46,0,0,1,1.13-3.27,5.14,5.14,0,0,1,5.76-.49,3.87,3.87,0,0,1,1.38,2l-2.34.52a1.92,1.92,0,0,0-.26-.57,1.61,1.61,0,0,0-.54-.47A1.7,1.7,0,0,0,320,124a3.12,3.12,0,0,0-.36,1.69,3.27,3.27,0,0,0,.43,2,1.48,1.48,0,0,0,1.22.53,1.46,1.46,0,0,0,1.15-.43A2.61,2.61,0,0,0,323,126.48Zm3.28-.77a4.06,4.06,0,0,1,4.44-4.45,4.5,4.5,0,0,1,3.3,1.15,4.33,4.33,0,0,1,1.16,3.23,5.27,5.27,0,0,1-.51,2.47,3.58,3.58,0,0,1-1.46,1.5,4.8,4.8,0,0,1-2.39.53,5.43,5.43,0,0,1-2.4-.46,3.68,3.68,0,0,1-1.55-1.46A4.93,4.93,0,0,1,326.32,125.71Zm2.66,0a2.89,2.89,0,0,0,.48,1.87,1.63,1.63,0,0,0,1.31.57,1.65,1.65,0,0,0,1.33-.56,3.2,3.2,0,0,0,.47-2,2.67,2.67,0,0,0-.49-1.77,1.69,1.69,0,0,0-1.33-.56,1.63,1.63,0,0,0-1.29.57A2.93,2.93,0,0,0,329,125.72Zm7.69-4.31h2.48l3.23,4.75v-4.75h2.5V130h-2.5l-3.21-4.72V130h-2.5Zm15.7,5.07,2.32.71a4.15,4.15,0,0,1-.74,1.63,3.1,3.1,0,0,1-1.25,1,4.69,4.69,0,0,1-1.9.33,5.6,5.6,0,0,1-2.29-.4,3.64,3.64,0,0,1-1.53-1.43,4.88,4.88,0,0,1-.64-2.63,4.42,4.42,0,0,1,1.13-3.27,5.14,5.14,0,0,1,5.76-.49,3.87,3.87,0,0,1,1.38,2l-2.34.52a2.21,2.21,0,0,0-.26-.57,1.55,1.55,0,0,0-.55-.47,1.53,1.53,0,0,0-.72-.16,1.56,1.56,0,0,0-1.38.72,3.12,3.12,0,0,0-.36,1.69,3.2,3.2,0,0,0,.43,2,1.48,1.48,0,0,0,1.22.53,1.46,1.46,0,0,0,1.15-.43A2.61,2.61,0,0,0,352.37,126.48Zm3.28-.77a4.06,4.06,0,0,1,4.43-4.45,4.55,4.55,0,0,1,3.31,1.15,4.37,4.37,0,0,1,1.16,3.23,5.27,5.27,0,0,1-.51,2.47,3.7,3.7,0,0,1-1.46,1.5,4.83,4.83,0,0,1-2.39.53,5.51,5.51,0,0,1-2.41-.46,3.66,3.66,0,0,1-1.54-1.46A4.83,4.83,0,0,1,355.65,125.71Zm2.65,0a2.83,2.83,0,0,0,.49,1.87,1.81,1.81,0,0,0,2.63,0,3.14,3.14,0,0,0,.47-2,2.62,2.62,0,0,0-.49-1.77,1.66,1.66,0,0,0-1.32-.56,1.6,1.6,0,0,0-1.29.57A2.86,2.86,0,0,0,358.3,125.72ZM366,130v-8.59h4.43a6.48,6.48,0,0,1,1.88.21,2,2,0,0,1,1.05.78,2.42,2.42,0,0,1,.39,1.39,2.45,2.45,0,0,1-.3,1.24,2.41,2.41,0,0,1-.84.84,3.51,3.51,0,0,1-.93.34,2.69,2.69,0,0,1,.69.31,2.23,2.23,0,0,1,.42.46,3.51,3.51,0,0,1,.38.53l1.28,2.49h-3L370,127.37a2,2,0,0,0-.48-.66,1.11,1.11,0,0,0-.65-.2h-.23V130Zm2.67-5.11h1.12a3.94,3.94,0,0,0,.7-.12.64.64,0,0,0,.43-.27.8.8,0,0,0,.17-.5.82.82,0,0,0-.26-.64,1.69,1.69,0,0,0-1-.22h-1.16Zm6.67-3.48h3.94a4.69,4.69,0,0,1,1.88.31,3.18,3.18,0,0,1,1.19.91A3.88,3.88,0,0,1,383,124a6.4,6.4,0,0,1,.21,1.66,5.8,5.8,0,0,1-.31,2.14,3.5,3.5,0,0,1-.87,1.27,2.8,2.8,0,0,1-1.2.68,6,6,0,0,1-1.58.24h-3.94Zm2.65,1.94v4.7h.65a2.65,2.65,0,0,0,1.19-.19,1.31,1.31,0,0,0,.55-.64,4.14,4.14,0,0,0,.2-1.49,2.86,2.86,0,0,0-.45-1.87,1.88,1.88,0,0,0-1.48-.51Z"/>
  <path id="WHERE2" class="cls-3" d="M390.34,121.41h2.52l.91,4.81,1.33-4.81h2.51l1.33,4.8.91-4.8h2.51L400.47,130h-2.61l-1.5-5.41-1.5,5.41h-2.61Zm12.9,0h2.65v3h2.9v-3h2.67V130h-2.67v-3.48h-2.9V130h-2.65Zm10,0h7.11v1.83h-4.45v1.37H420v1.75h-4.13v1.69h4.58V130h-7.24Zm8.7,8.59v-8.59h4.43a6.43,6.43,0,0,1,1.88.21,2,2,0,0,1,1,.78,2.42,2.42,0,0,1,.4,1.39,2.45,2.45,0,0,1-.31,1.24,2.41,2.41,0,0,1-.84.84,3.26,3.26,0,0,1-.93.34,1.76,1.76,0,0,1,1.12.77,3.29,3.29,0,0,1,.37.53l1.28,2.49h-3L426,127.37a2,2,0,0,0-.48-.66,1.17,1.17,0,0,0-.66-.2h-.23V130Zm2.67-5.11h1.12a3.94,3.94,0,0,0,.7-.12.64.64,0,0,0,.43-.27.8.8,0,0,0,.17-.5.79.79,0,0,0-.26-.63,1.59,1.59,0,0,0-1-.23h-1.17Zm6.63-3.48h7.11v1.83h-4.45v1.37H438v1.75h-4.13v1.69h4.58V130h-7.24Z"/>
  <path id="NO" class="cls-3" d="M445.7,121.41h2.48l3.23,4.75v-4.75h2.5V130h-2.5l-3.22-4.72V130H445.7Zm9.64,4.3a4.06,4.06,0,0,1,4.44-4.45,4.5,4.5,0,0,1,3.3,1.15,4.33,4.33,0,0,1,1.16,3.23,5.27,5.27,0,0,1-.51,2.47,3.58,3.58,0,0,1-1.46,1.5,4.8,4.8,0,0,1-2.39.53,5.43,5.43,0,0,1-2.4-.46,3.68,3.68,0,0,1-1.55-1.46A4.93,4.93,0,0,1,455.34,125.71Zm2.66,0a2.89,2.89,0,0,0,.48,1.87,1.63,1.63,0,0,0,1.31.57,1.65,1.65,0,0,0,1.33-.56,3.2,3.2,0,0,0,.47-2,2.67,2.67,0,0,0-.49-1.77,1.69,1.69,0,0,0-1.33-.56,1.63,1.63,0,0,0-1.29.57A2.93,2.93,0,0,0,458,125.72Z"/>
  <path id="ONE" class="cls-3" d="M469,125.71a4.06,4.06,0,0,1,4.43-4.45,4.53,4.53,0,0,1,3.31,1.15,4.37,4.37,0,0,1,1.16,3.23,5.27,5.27,0,0,1-.51,2.47,3.64,3.64,0,0,1-1.46,1.5,4.83,4.83,0,0,1-2.39.53,5.51,5.51,0,0,1-2.41-.46,3.66,3.66,0,0,1-1.54-1.46A4.93,4.93,0,0,1,469,125.71Zm2.65,0a2.83,2.83,0,0,0,.49,1.87,1.63,1.63,0,0,0,1.31.57,1.66,1.66,0,0,0,1.33-.56,3.21,3.21,0,0,0,.46-2,2.68,2.68,0,0,0-.48-1.77,1.69,1.69,0,0,0-1.33-.56,1.6,1.6,0,0,0-1.29.57A2.86,2.86,0,0,0,471.62,125.72Zm7.7-4.31h2.47l3.24,4.75v-4.75h2.5V130H485l-3.22-4.72V130h-2.49Zm10,0h7.11v1.83H492v1.37h4.13v1.75H492v1.69h4.58V130h-7.24Z"/>
  <path id="COULD" class="cls-3" d="M323,141.09l2.33.71a4.46,4.46,0,0,1-.74,1.63,3.17,3.17,0,0,1-1.25,1,4.72,4.72,0,0,1-1.9.34,5.52,5.52,0,0,1-2.29-.41,3.64,3.64,0,0,1-1.53-1.43,4.88,4.88,0,0,1-.65-2.63,4.46,4.46,0,0,1,1.13-3.27,5.14,5.14,0,0,1,5.76-.49,3.87,3.87,0,0,1,1.38,2l-2.34.53a1.88,1.88,0,0,0-.26-.58,1.61,1.61,0,0,0-.54-.47,1.7,1.7,0,0,0-2.11.56,3.14,3.14,0,0,0-.36,1.7,3.25,3.25,0,0,0,.43,1.95,1.72,1.72,0,0,0,2.37.11A2.69,2.69,0,0,0,323,141.09Zm3.28-.77a4.67,4.67,0,0,1,7.74-3.3,4.33,4.33,0,0,1,1.16,3.23,5.27,5.27,0,0,1-.51,2.47,3.58,3.58,0,0,1-1.46,1.5,4.8,4.8,0,0,1-2.39.54,5.43,5.43,0,0,1-2.4-.47,3.62,3.62,0,0,1-1.55-1.46A4.93,4.93,0,0,1,326.32,140.32Zm2.66,0a2.89,2.89,0,0,0,.48,1.87,1.63,1.63,0,0,0,1.31.57,1.65,1.65,0,0,0,1.33-.56,3.2,3.2,0,0,0,.47-2,2.69,2.69,0,0,0-.49-1.77,1.69,1.69,0,0,0-1.33-.56,1.63,1.63,0,0,0-1.29.57A2.93,2.93,0,0,0,329,140.33ZM342.24,136h2.65v5.12a4.25,4.25,0,0,1-.24,1.43,3.14,3.14,0,0,1-.74,1.19,3.07,3.07,0,0,1-1.07.71,5.32,5.32,0,0,1-1.85.29,11.36,11.36,0,0,1-1.37-.09,3.71,3.71,0,0,1-1.24-.35,3.16,3.16,0,0,1-.91-.74,2.65,2.65,0,0,1-.57-1,5.26,5.26,0,0,1-.24-1.45V136h2.65v5.24a1.51,1.51,0,0,0,.39,1.1,1.68,1.68,0,0,0,2.15,0,1.49,1.49,0,0,0,.39-1.1Zm4.41,0h2.65v6.47h4.14v2.12h-6.79Zm8,0h3.94a4.51,4.51,0,0,1,1.88.32,3.06,3.06,0,0,1,1.19.9,3.88,3.88,0,0,1,.68,1.38,6.4,6.4,0,0,1,.21,1.66,5.8,5.8,0,0,1-.31,2.14,3.5,3.5,0,0,1-.87,1.27,2.8,2.8,0,0,1-1.2.68,6,6,0,0,1-1.58.24h-3.94Zm2.65,1.94v4.7H358a2.57,2.57,0,0,0,1.18-.19,1.28,1.28,0,0,0,.56-.64,4.18,4.18,0,0,0,.19-1.49,2.87,2.87,0,0,0-.44-1.87A1.88,1.88,0,0,0,358,138Z"/>
  <path id="RECOGNISE" class="cls-3" d="M373.83,147.76v-13.9H381a10.28,10.28,0,0,1,3,.34,3.26,3.26,0,0,1,1.7,1.27,3.8,3.8,0,0,1,.64,2.25,3.7,3.7,0,0,1-1.85,3.36,5.33,5.33,0,0,1-1.5.55,2.93,2.93,0,0,1,1.8,1.24,5.32,5.32,0,0,1,.6.86l2.08,4h-4.85l-2.3-4.25a3.4,3.4,0,0,0-.77-1.07,1.84,1.84,0,0,0-1.06-.32h-.38v5.64Zm4.31-8.27H380a6.14,6.14,0,0,0,1.13-.19,1.11,1.11,0,0,0,.7-.43,1.32,1.32,0,0,0,.27-.81,1.25,1.25,0,0,0-.43-1,2.57,2.57,0,0,0-1.6-.36h-1.89Zm10.73-5.63h11.51v3h-7.21V139h6.69v2.83h-6.69v2.74h7.42v3.15H388.87Zm23.28,8.21,3.77,1.14a6.85,6.85,0,0,1-1.2,2.64,5.19,5.19,0,0,1-2,1.61,7.59,7.59,0,0,1-3.08.54,8.91,8.91,0,0,1-3.7-.66,5.87,5.87,0,0,1-2.48-2.32,7.79,7.79,0,0,1-1-4.24,7.21,7.21,0,0,1,1.83-5.3,8.31,8.31,0,0,1,9.32-.79,6.16,6.16,0,0,1,2.23,3.26l-3.79.84a3.46,3.46,0,0,0-.41-.93,2.5,2.5,0,0,0-.89-.76,2.57,2.57,0,0,0-1.16-.26,2.52,2.52,0,0,0-2.24,1.17,5,5,0,0,0-.59,2.74,5.26,5.26,0,0,0,.7,3.17,2.42,2.42,0,0,0,2,.85,2.39,2.39,0,0,0,1.86-.69A4.27,4.27,0,0,0,412.15,142.07Zm5.31-1.25A7.55,7.55,0,0,1,430,135.49a7,7,0,0,1,1.87,5.22,8.63,8.63,0,0,1-.81,4,5.87,5.87,0,0,1-2.38,2.43,7.79,7.79,0,0,1-3.86.87,8.87,8.87,0,0,1-3.89-.75,5.86,5.86,0,0,1-2.5-2.37A7.87,7.87,0,0,1,417.46,140.82Zm4.3,0a4.66,4.66,0,0,0,.78,3,3,3,0,0,0,4.27,0,5.11,5.11,0,0,0,.76-3.23,4.28,4.28,0,0,0-.79-2.87,2.73,2.73,0,0,0-2.15-.9,2.58,2.58,0,0,0-2.08.92A4.62,4.62,0,0,0,421.76,140.84Zm19.41,1.89v-2.9h6.63v5.93a13.31,13.31,0,0,1-3.37,1.77A11.47,11.47,0,0,1,441,148a8.38,8.38,0,0,1-4-.85,5.74,5.74,0,0,1-2.41-2.51,8.16,8.16,0,0,1-.86-3.83,8,8,0,0,1,.94-4,6,6,0,0,1,2.75-2.55,8.88,8.88,0,0,1,3.8-.68,10.59,10.59,0,0,1,3.44.42,4.4,4.4,0,0,1,1.9,1.3,5.68,5.68,0,0,1,1.13,2.22l-4.14.74a2.23,2.23,0,0,0-.87-1.21,3.11,3.11,0,0,0-3.81.57,4.71,4.71,0,0,0-.84,3.1,4.86,4.86,0,0,0,.85,3.23,3,3,0,0,0,2.37,1,4.73,4.73,0,0,0,1.37-.2A7.16,7.16,0,0,0,444,144v-1.3Zm9.21-8.87h4l5.24,7.69v-7.69h4.05v13.9h-4.05l-5.21-7.63v7.63h-4Zm16.32,0H471v13.9h-4.3Zm6.64,9.3,4.08-.25a3.11,3.11,0,0,0,.54,1.51,2.26,2.26,0,0,0,1.9.85,2.17,2.17,0,0,0,1.42-.43,1.31,1.31,0,0,0,.49-1,1.24,1.24,0,0,0-.47-1,5.53,5.53,0,0,0-2.2-.81,9.21,9.21,0,0,1-4-1.69,3.38,3.38,0,0,1-1.21-2.68,3.58,3.58,0,0,1,.62-2,4.06,4.06,0,0,1,1.87-1.5,8.75,8.75,0,0,1,3.41-.55,7,7,0,0,1,4.07,1,4.33,4.33,0,0,1,1.66,3.16l-4.05.23a2.1,2.1,0,0,0-.68-1.36,2.13,2.13,0,0,0-1.42-.43,1.73,1.73,0,0,0-1.13.32,1,1,0,0,0-.38.77.78.78,0,0,0,.31.6,3.71,3.71,0,0,0,1.44.51,18.51,18.51,0,0,1,4,1.23,4.24,4.24,0,0,1,1.77,1.54,3.91,3.91,0,0,1,.56,2.06,4.41,4.41,0,0,1-.74,2.46,4.59,4.59,0,0,1-2.07,1.71,8.34,8.34,0,0,1-3.35.59q-3.54,0-4.91-1.37A5.36,5.36,0,0,1,473.34,143.16Zm14.76-9.3h11.51v3H492.4V139h6.69v2.83H492.4v2.74h7.42v3.15H488.1Z"/>
  <path id="US" class="cls-3" d="M329.64,154.84h5.41v10.44a8.64,8.64,0,0,1-.49,2.94,6.29,6.29,0,0,1-1.52,2.41,6,6,0,0,1-2.17,1.45,10.89,10.89,0,0,1-3.79.59,23.78,23.78,0,0,1-2.79-.18,7.43,7.43,0,0,1-2.53-.71,6.69,6.69,0,0,1-1.86-1.51,5.69,5.69,0,0,1-1.15-2,10.7,10.7,0,0,1-.5-3V154.84h5.4v10.69a3,3,0,0,0,.8,2.24,2.94,2.94,0,0,0,2.2.81,3,3,0,0,0,2.2-.8,3,3,0,0,0,.79-2.25Zm8.05,11.73,5.15-.32a4,4,0,0,0,.69,1.91,2.85,2.85,0,0,0,2.39,1.07,2.63,2.63,0,0,0,1.78-.55,1.62,1.62,0,0,0,.63-1.26,1.6,1.6,0,0,0-.6-1.22,6.83,6.83,0,0,0-2.77-1,11.76,11.76,0,0,1-5.08-2.12,4.3,4.3,0,0,1-1.53-3.39,4.6,4.6,0,0,1,.78-2.55,5.21,5.21,0,0,1,2.36-1.89,10.92,10.92,0,0,1,4.31-.69,8.81,8.81,0,0,1,5.12,1.25,5.37,5.37,0,0,1,2.1,4l-5.11.3a2.76,2.76,0,0,0-.85-1.73,2.82,2.82,0,0,0-1.8-.53,2.13,2.13,0,0,0-1.42.4,1.21,1.21,0,0,0-.48,1,1,1,0,0,0,.39.75,4.33,4.33,0,0,0,1.82.65,22.91,22.91,0,0,1,5.09,1.55,5.32,5.32,0,0,1,2.23,1.94,4.9,4.9,0,0,1,.7,2.6,5.59,5.59,0,0,1-.93,3.11,5.85,5.85,0,0,1-2.61,2.15,10.5,10.5,0,0,1-4.22.74c-3,0-5-.58-6.19-1.72A6.79,6.79,0,0,1,337.69,166.57Z"/>
  <path id="AND1" class="cls-1" d="M578.94,63.22h-4.71l-.66,2.22h-4.24l5-13.45h4.53L584,65.44h-4.35Zm-.86-2.91-1.48-4.83-1.47,4.83ZM585.31,52h3.88l5.06,7.44V52h3.92V65.44h-3.92l-5-7.38v7.38h-3.91ZM601,52h6.17a7.39,7.39,0,0,1,3,.5A4.77,4.77,0,0,1,612,53.91,6.06,6.06,0,0,1,613,56.07a9.9,9.9,0,0,1,.33,2.6,9,9,0,0,1-.49,3.34,5.55,5.55,0,0,1-1.36,2,4.45,4.45,0,0,1-1.87,1.07,9.88,9.88,0,0,1-2.48.37H601Zm4.15,3v7.34h1a4.13,4.13,0,0,0,1.85-.29,1.93,1.93,0,0,0,.87-1,6.54,6.54,0,0,0,.31-2.34,4.54,4.54,0,0,0-.7-2.92,2.92,2.92,0,0,0-2.31-.79Z"/>
  <path id="HOW" class="cls-1" d="M624.47,52h4.15V56.7h4.54V52h4.17V65.44h-4.17V60h-4.54v5.44h-4.15Zm15.1,6.73a6.35,6.35,0,0,1,6.94-6.95,7,7,0,0,1,5.17,1.8,6.78,6.78,0,0,1,1.82,5,8.27,8.27,0,0,1-.8,3.87,5.64,5.64,0,0,1-2.29,2.35,7.58,7.58,0,0,1-3.74.84,8.63,8.63,0,0,1-3.76-.73,5.72,5.72,0,0,1-2.42-2.29A7.7,7.7,0,0,1,639.57,58.72Zm4.15,0a4.5,4.5,0,0,0,.76,2.93,2.86,2.86,0,0,0,4.13,0,5,5,0,0,0,.73-3.13,4.13,4.13,0,0,0-.76-2.77,2.61,2.61,0,0,0-2.08-.88,2.54,2.54,0,0,0-2,.89A4.55,4.55,0,0,0,643.72,58.74ZM654,52H658l1.42,7.53L661.47,52h3.93l2.09,7.52L668.91,52h3.92l-3,13.45H665.8L663.44,57l-2.35,8.47H657Z"/>
  <path id="LONG" class="cls-1" d="M679.65,52h4.15V62.13h6.49v3.31H679.65Zm11.68,6.73a6.36,6.36,0,0,1,6.94-6.95,7,7,0,0,1,5.17,1.8,6.78,6.78,0,0,1,1.82,5,8.4,8.4,0,0,1-.79,3.87,5.66,5.66,0,0,1-2.3,2.35,7.54,7.54,0,0,1-3.73.84,8.67,8.67,0,0,1-3.77-.73,5.7,5.7,0,0,1-2.41-2.29A7.6,7.6,0,0,1,691.33,58.72Zm4.15,0a4.55,4.55,0,0,0,.76,2.93,2.86,2.86,0,0,0,4.13,0,5,5,0,0,0,.74-3.13,4.13,4.13,0,0,0-.77-2.77,2.6,2.6,0,0,0-2.08-.88,2.52,2.52,0,0,0-2,.89A4.49,4.49,0,0,0,695.48,58.74Zm12-6.75h3.88l5.06,7.44V52h3.92V65.44h-3.92l-5-7.38v7.38h-3.91Zm22.38,8.58v-2.8h6.41V63.5a12.91,12.91,0,0,1-3.26,1.71,11.09,11.09,0,0,1-3.36.46,8.24,8.24,0,0,1-3.9-.82,5.61,5.61,0,0,1-2.34-2.43,8,8,0,0,1-.83-3.7,7.78,7.78,0,0,1,.91-3.83,5.85,5.85,0,0,1,2.66-2.47,8.58,8.58,0,0,1,3.68-.65,10.33,10.33,0,0,1,3.33.4A4.31,4.31,0,0,1,735,53.42a5.47,5.47,0,0,1,1.1,2.15l-4,.72a2.13,2.13,0,0,0-.84-1.17,2.58,2.58,0,0,0-1.5-.4,2.69,2.69,0,0,0-2.18,1,4.56,4.56,0,0,0-.81,3,4.72,4.72,0,0,0,.82,3.12,2.88,2.88,0,0,0,2.29.93,4.44,4.44,0,0,0,1.32-.2,6.42,6.42,0,0,0,1.45-.69V60.57Z"/>
  <path id="HAVE" class="cls-1" d="M557.71,71.56h8.37V81h9.15V71.56h8.41V98.65h-8.41v-11h-9.15v11h-8.37Zm48.16,22.62h-9.51L595,98.65h-8.55l10.18-27.09h9.14L616,98.65h-8.77Zm-1.74-5.86-3-9.74-3,9.74Zm9.77-16.76h8.75l6.1,19.5,6-19.5h8.5L633.21,98.65h-9.07Zm32.09,0h22.44v5.78h-14v4.31h13v5.53h-13v5.34h14.46v6.13H646Z"/>
  <path id="YOU2" class="cls-1" d="M678.31,73.31h7.54l4.43,7.42,4.44-7.42h7.51l-8.55,12.78V95.3h-6.81V86.09Zm23.41,11c0-3.59,1-6.39,3-8.38s4.78-3,8.35-3,6.48,1,8.46,2.94,3,4.72,3,8.26a13.45,13.45,0,0,1-1.3,6.32,9.19,9.19,0,0,1-3.75,3.84,12.41,12.41,0,0,1-6.11,1.37,14.1,14.1,0,0,1-6.16-1.18,9.29,9.29,0,0,1-3.95-3.75A12.45,12.45,0,0,1,701.72,84.32Zm6.79,0q0,3.33,1.24,4.78a4.68,4.68,0,0,0,6.76,0c.8-1,1.19-2.65,1.19-5.11a6.78,6.78,0,0,0-1.25-4.54,4.27,4.27,0,0,0-3.39-1.43,4.12,4.12,0,0,0-3.3,1.45Q708.51,81,708.51,84.35Zm34-11h6.77v13.1a11.14,11.14,0,0,1-.6,3.68,8,8,0,0,1-1.91,3A7.61,7.61,0,0,1,744,94.94a13.67,13.67,0,0,1-4.75.73,30,30,0,0,1-3.51-.22,9.29,9.29,0,0,1-3.17-.89,8.09,8.09,0,0,1-2.33-1.9,7,7,0,0,1-1.45-2.53,13.15,13.15,0,0,1-.63-3.72V73.31H735V86.72a3.8,3.8,0,0,0,1,2.81,3.69,3.69,0,0,0,2.77,1,3.74,3.74,0,0,0,2.75-1,3.86,3.86,0,0,0,1-2.83Z"/>
  <path id="BEEN" class="cls-1" d="M557.56,110.3h6.07a3.31,3.31,0,0,1,2.33.75,2.43,2.43,0,0,1,.81,1.86,2.35,2.35,0,0,1-.58,1.6,2.55,2.55,0,0,1-1.13.7,3,3,0,0,1,1.67.93,2.63,2.63,0,0,1,.53,1.67,2.83,2.83,0,0,1-.38,1.47,2.78,2.78,0,0,1-1,1,3.33,3.33,0,0,1-1.23.34,13.51,13.51,0,0,1-1.45.15h-5.6Zm3.27,4.11h1.41a1.6,1.6,0,0,0,1.06-.26,1,1,0,0,0,.29-.75.92.92,0,0,0-.29-.72,1.63,1.63,0,0,0-1-.26h-1.43Zm0,4.13h1.65a1.83,1.83,0,0,0,1.19-.3,1,1,0,0,0,.34-.8.89.89,0,0,0-.34-.74,1.88,1.88,0,0,0-1.19-.29h-1.65ZM569,110.3h8.7v2.24H572.2v1.67h5v2.14h-5v2.07h5.61v2.38H569Zm10.6,0h8.69v2.24H582.8v1.67h5.05v2.14H582.8v2.07h5.6v2.38h-8.85Zm10.62,0h3l3.95,5.8v-5.8h3.06v10.5h-3.06L593.22,115v5.77h-3.05Z"/>
  <path id="SLEEPING" class="cls-1" d="M607,117.58l3.54-.22a2.69,2.69,0,0,0,.47,1.32,2,2,0,0,0,1.64.73,1.79,1.79,0,0,0,1.23-.37,1.13,1.13,0,0,0,.44-.87,1.11,1.11,0,0,0-.42-.84,4.69,4.69,0,0,0-1.9-.7,8.14,8.14,0,0,1-3.5-1.46,3,3,0,0,1-1-2.33,3.19,3.19,0,0,1,.54-1.76,3.62,3.62,0,0,1,1.62-1.3,7.66,7.66,0,0,1,3-.47,6.11,6.11,0,0,1,3.53.86,3.73,3.73,0,0,1,1.44,2.74l-3.51.2a1.89,1.89,0,0,0-.59-1.18,1.87,1.87,0,0,0-1.24-.37,1.53,1.53,0,0,0-1,.27.86.86,0,0,0-.33.67.66.66,0,0,0,.28.52,2.9,2.9,0,0,0,1.25.44,16.3,16.3,0,0,1,3.5,1.07,3.63,3.63,0,0,1,1.53,1.34,3.37,3.37,0,0,1,.48,1.78,3.81,3.81,0,0,1-.64,2.14,4,4,0,0,1-1.79,1.48,7.21,7.21,0,0,1-2.9.51c-2,0-3.47-.4-4.26-1.18A4.67,4.67,0,0,1,607,117.58Zm12.81-8.06h3.72v9.08h5.82v3h-9.54Zm11.22,0h10v2.57H634.8V114h5.8v2.46h-5.8v2.37h6.43v2.73H631.06Zm12.17,0h10v2.57H647V114h5.8v2.46H647v2.37h6.43v2.73H643.23Zm12.15,0h6.2a4.27,4.27,0,0,1,3,1,3.6,3.6,0,0,1,1,2.74,3.67,3.67,0,0,1-1.1,2.85,4.72,4.72,0,0,1-3.35,1h-2v4.47h-3.74Zm3.74,5.14H660a2.35,2.35,0,0,0,1.51-.38,1.21,1.21,0,0,0,.44-1,1.38,1.38,0,0,0-.38-1,2,2,0,0,0-1.43-.39h-1.06Zm8.59-5.14h3.73v12h-3.73Zm6.43,0h3.48l4.54,6.67v-6.67h3.51v12h-3.51L677.64,115v6.62h-3.5Zm20.07,7.69V114.7H700v5.14a11.66,11.66,0,0,1-2.92,1.53,10,10,0,0,1-3,.41,7.3,7.3,0,0,1-3.5-.73,5.09,5.09,0,0,1-2.1-2.18,7.12,7.12,0,0,1-.74-3.32,7,7,0,0,1,.81-3.44,5.26,5.26,0,0,1,2.38-2.21,7.77,7.77,0,0,1,3.3-.59,9.28,9.28,0,0,1,3,.36,3.91,3.91,0,0,1,1.65,1.13,5,5,0,0,1,1,1.92l-3.59.65a1.93,1.93,0,0,0-.76-1.05,2.34,2.34,0,0,0-1.35-.36,2.41,2.41,0,0,0-2,.85,4.08,4.08,0,0,0-.73,2.69,4.23,4.23,0,0,0,.74,2.8,2.58,2.58,0,0,0,2.05.84,3.94,3.94,0,0,0,1.19-.18,6.49,6.49,0,0,0,1.3-.62v-1.13Z"/>
  <path id="WITH" class="cls-1" d="M705.25,110.22h3.29l1.18,6.26,1.73-6.26h3.27l1.74,6.25,1.18-6.25h3.27l-2.47,11.19h-3.39l-2-7-2,7h-3.39Zm16.93,0h3.46v11.19h-3.46Zm5.16,0h10.51V113h-3.53v8.43h-3.46V113h-3.52Zm12.09,0h3.46v3.91h3.78v-3.91h3.47v11.19h-3.47v-4.53h-3.78v4.53h-3.46Z"/>
  <path id="MRS2" class="cls-2" d="M637.84,130.4h3.49l1.35,5.22L644,130.4h3.49V139h-2.17v-6.55L643.65,139h-2L640,132.44V139h-2.17ZM649.23,139V130.4h4.42a6.51,6.51,0,0,1,1.89.21,2,2,0,0,1,1,.78,2.35,2.35,0,0,1,.4,1.39,2.45,2.45,0,0,1-.3,1.24,2.5,2.5,0,0,1-.84.84,3.51,3.51,0,0,1-.93.34,2.86,2.86,0,0,1,.69.31,2.23,2.23,0,0,1,.42.46,3.51,3.51,0,0,1,.38.53l1.28,2.49h-3l-1.42-2.63a2,2,0,0,0-.48-.66,1.14,1.14,0,0,0-.65-.2h-.23V139Zm2.67-5.11H653a3.94,3.94,0,0,0,.7-.12.64.64,0,0,0,.43-.27.86.86,0,0,0-.1-1.14,1.63,1.63,0,0,0-1-.22H651.9Zm6.17,2.27,2.52-.16a1.91,1.91,0,0,0,.34.93,1.39,1.39,0,0,0,1.17.53,1.26,1.26,0,0,0,.87-.27.79.79,0,0,0,.31-.62.82.82,0,0,0-.29-.6,3.46,3.46,0,0,0-1.36-.49,5.84,5.84,0,0,1-2.49-1.05,2.08,2.08,0,0,1-.75-1.66,2.31,2.31,0,0,1,.38-1.25,2.53,2.53,0,0,1,1.16-.92,5.28,5.28,0,0,1,2.11-.34,4.38,4.38,0,0,1,2.51.61,2.64,2.64,0,0,1,1,1.95l-2.5.15a1.16,1.16,0,0,0-1.3-1.11,1.06,1.06,0,0,0-.7.2.59.59,0,0,0-.24.47.48.48,0,0,0,.2.37,2.06,2.06,0,0,0,.89.32,10.85,10.85,0,0,1,2.49.76,2.6,2.6,0,0,1,1.1.95,2.39,2.39,0,0,1,.34,1.27,2.72,2.72,0,0,1-.46,1.53,2.87,2.87,0,0,1-1.27,1.05,5.19,5.19,0,0,1-2.07.36,4.28,4.28,0,0,1-3-.84A3.31,3.31,0,0,1,658.07,136.15Zm9,.45h2.55V139H667Z"/>
  <path id="WINDHAM2" class="cls-2" d="M678.27,130.4h2.52l.91,4.81L683,130.4h2.51l1.33,4.8.91-4.8h2.51l-1.9,8.59h-2.6l-1.51-5.41-1.5,5.41h-2.6Zm13,0h2.66V139h-2.66Zm4.58,0h2.48l3.24,4.75V130.4h2.5V139h-2.5l-3.22-4.72V139h-2.5Zm10,0h3.94a4.73,4.73,0,0,1,1.88.31,3.18,3.18,0,0,1,1.19.91,3.88,3.88,0,0,1,.68,1.38,6.4,6.4,0,0,1,.21,1.66,5.8,5.8,0,0,1-.31,2.14,3.5,3.5,0,0,1-.87,1.27,2.8,2.8,0,0,1-1.2.68,6,6,0,0,1-1.58.24h-3.94Zm2.65,1.94V137h.65a2.57,2.57,0,0,0,1.18-.19,1.28,1.28,0,0,0,.56-.64,4.18,4.18,0,0,0,.19-1.49,2.87,2.87,0,0,0-.44-1.87,1.88,1.88,0,0,0-1.48-.51Zm6.66-1.94h2.65v3h2.9v-3h2.67V139h-2.67v-3.48h-2.9V139h-2.65Zm15.26,7.17h-3L727,139h-2.71l3.23-8.59h2.89l3.23,8.59h-2.78Zm-.55-1.86-1-3.09-.94,3.09Zm4.58-5.31H738l1.34,5.22,1.34-5.22h3.49V139h-2.18v-6.55L740.27,139h-2l-1.67-6.55V139h-2.17Zm15.07,5.89h-2.22v-.22a2.89,2.89,0,0,1,.12-.92,2,2,0,0,1,.39-.65,11.14,11.14,0,0,1,1.14-1c.32-.26.48-.5.48-.71a.67.67,0,0,0-.19-.5.82.82,0,0,0-.58-.18.9.9,0,0,0-.69.28,1.6,1.6,0,0,0-.35,1l-2.27-.29a3.09,3.09,0,0,1,.91-2,3.4,3.4,0,0,1,2.44-.77,3.66,3.66,0,0,1,2.06.53,2.24,2.24,0,0,1,1.06,1.93,1.89,1.89,0,0,1-.27,1,4.7,4.7,0,0,1-1.13,1.13,2.93,2.93,0,0,0-.74.75A1.48,1.48,0,0,0,749.53,136.29Zm-2.3.59h2.38V139h-2.38Z"/>
  <path id="THREE" class="cls-3" d="M610,134.64l-8.09-1.45a10.15,10.15,0,0,1,3.87-5.92c1.92-1.37,4.62-2.06,8.12-2.06q6,0,8.72,2.25a7.07,7.07,0,0,1,2.69,5.65,6.27,6.27,0,0,1-1.09,3.61,9.28,9.28,0,0,1-3.3,2.84,9.65,9.65,0,0,1,2.73,1,6.71,6.71,0,0,1,2.39,2.49,7.61,7.61,0,0,1,.85,3.68,10.23,10.23,0,0,1-1.41,5.16,9.4,9.4,0,0,1-4.06,3.8,15.46,15.46,0,0,1-6.95,1.34,18,18,0,0,1-6.63-1,9.85,9.85,0,0,1-4-2.89,13.33,13.33,0,0,1-2.4-4.78l8.55-1.13a6.57,6.57,0,0,0,1.56,3.58,3.77,3.77,0,0,0,2.7,1,3.73,3.73,0,0,0,2.87-1.26,4.82,4.82,0,0,0,1.14-3.36,4.64,4.64,0,0,0-1.1-3.32,3.89,3.89,0,0,0-3-1.18,10.72,10.72,0,0,0-2.78.51l.44-6.12a8.42,8.42,0,0,0,1.12.11,3.91,3.91,0,0,0,2.8-1.07,3.43,3.43,0,0,0,1.13-2.55,3,3,0,0,0-.84-2.24,3.14,3.14,0,0,0-2.31-.84,3.38,3.38,0,0,0-2.46.91A5.53,5.53,0,0,0,610,134.64Z"/>
  <path id="MONTHS" class="cls-3" d="M637.84,146.34h3.49l1.35,5.22,1.33-5.22h3.49v8.58h-2.17v-6.55l-1.68,6.55h-2L640,148.37v6.55h-2.17Zm11,4.3a4.67,4.67,0,0,1,7.74-3.3,4.32,4.32,0,0,1,1.16,3.23,5.43,5.43,0,0,1-.5,2.47,3.66,3.66,0,0,1-1.47,1.5,4.91,4.91,0,0,1-2.39.53,5.43,5.43,0,0,1-2.4-.46,3.65,3.65,0,0,1-1.55-1.47A4.87,4.87,0,0,1,648.86,150.64Zm2.66,0a2.91,2.91,0,0,0,.48,1.87,1.82,1.82,0,0,0,2.64,0,3.2,3.2,0,0,0,.47-2,2.67,2.67,0,0,0-.49-1.77,1.66,1.66,0,0,0-1.33-.56,1.63,1.63,0,0,0-1.29.57A2.91,2.91,0,0,0,651.52,150.65Zm7.69-4.31h2.48l3.23,4.75v-4.75h2.5v8.58h-2.5l-3.21-4.71v4.71h-2.5Zm9.37,0h8.07v2.12H674v6.46h-2.66v-6.46h-2.71Zm9.29,0h2.65v3h2.9v-3h2.67v8.58h-2.67v-3.47h-2.9v3.47h-2.65Zm9.52,5.74,2.52-.16a1.91,1.91,0,0,0,.34.94,1.39,1.39,0,0,0,1.17.52,1.26,1.26,0,0,0,.87-.26.8.8,0,0,0,.31-.62.82.82,0,0,0-.29-.6,3.59,3.59,0,0,0-1.36-.5,5.85,5.85,0,0,1-2.49-1,2.1,2.1,0,0,1-.75-1.66,2.29,2.29,0,0,1,.38-1.25,2.53,2.53,0,0,1,1.16-.92,5.28,5.28,0,0,1,2.11-.34,4.31,4.31,0,0,1,2.51.61,2.64,2.64,0,0,1,1,1.95l-2.5.15a1.4,1.4,0,0,0-.42-.85,1.38,1.38,0,0,0-.88-.26,1.08,1.08,0,0,0-.7.19.61.61,0,0,0-.24.48.48.48,0,0,0,.2.37,2.2,2.2,0,0,0,.89.32,10.85,10.85,0,0,1,2.49.76,2.6,2.6,0,0,1,1.1,1,2.39,2.39,0,0,1,.34,1.27,2.66,2.66,0,0,1-.46,1.52,2.82,2.82,0,0,1-1.27,1.06,5.19,5.19,0,0,1-2.07.36,4.28,4.28,0,0,1-3-.84A3.32,3.32,0,0,1,687.39,152.08Zm9,.45h2.55v2.39h-2.55Z"/>
  <path id="AND2" class="cls-1" d="M39.85,228.25l-5,0-.71,2.33-4.47,0,5.42-14.13,4.77,0,5.23,14.2-4.58,0ZM39,225.18l-1.53-5.1-1.58,5.08Zm7.68-8.71,4.08,0L56,224.37l.06-7.84,4.12,0-.09,14.16-4.13,0-5.25-7.81-.05,7.78-4.12,0Zm16.51.11,6.5,0a7.88,7.88,0,0,1,3.1.54,5.06,5.06,0,0,1,2,1.52A6.08,6.08,0,0,1,75.8,221a10.26,10.26,0,0,1,.33,2.75,9.55,9.55,0,0,1-.54,3.52,5.77,5.77,0,0,1-1.45,2.08,4.71,4.71,0,0,1-2,1.12,9.94,9.94,0,0,1-2.61.36l-6.5,0Zm4.35,3.24,0,7.73h1.07a4.48,4.48,0,0,0,2-.29,2.06,2.06,0,0,0,.91-1.06,6.71,6.71,0,0,0,.35-2.45,4.76,4.76,0,0,0-.72-3.09,3.09,3.09,0,0,0-2.43-.85Z"/>
  <path id="YOUR" class="cls-1" d="M79.59,217.07l4.73,0,2.75,4.67,2.81-4.63,4.71,0-5.41,8,0,5.77-4.27,0,0-5.77Zm14.63,7a6.54,6.54,0,0,1,7.16-7.09,7.21,7.21,0,0,1,5.29,1.88,7,7,0,0,1,1.83,5.19,8.49,8.49,0,0,1-.84,4,5.87,5.87,0,0,1-2.37,2.39,7.81,7.81,0,0,1-3.83.83,8.72,8.72,0,0,1-3.86-.77,5.87,5.87,0,0,1-2.46-2.36A7.88,7.88,0,0,1,94.22,224.07Zm4.26,0a4.64,4.64,0,0,0,.75,3,3,3,0,0,0,4.24,0,5.15,5.15,0,0,0,.77-3.2,4.24,4.24,0,0,0-.77-2.85,2.64,2.64,0,0,0-2.12-.91,2.57,2.57,0,0,0-2.07.89A4.62,4.62,0,0,0,98.48,224.11Zm21.32-6.77,4.25,0,0,8.21a7,7,0,0,1-.4,2.3,5,5,0,0,1-1.21,1.89,4.71,4.71,0,0,1-1.71,1.13,8.55,8.55,0,0,1-3,.44,17.94,17.94,0,0,1-2.2-.16,5.58,5.58,0,0,1-2-.57,4.79,4.79,0,0,1-1.45-1.2,4.27,4.27,0,0,1-.9-1.59,8.27,8.27,0,0,1-.38-2.33l.06-8.21,4.24,0,0,8.4a2.41,2.41,0,0,0,.61,1.77,2.71,2.71,0,0,0,3.46,0,2.41,2.41,0,0,0,.64-1.77Zm7,13.83.09-13.78,7.09,0a10.4,10.4,0,0,1,3,.36,3.19,3.19,0,0,1,1.67,1.27,3.9,3.9,0,0,1-1.23,5.55,5,5,0,0,1-1.5.54,4.17,4.17,0,0,1,1.11.51,4.76,4.76,0,0,1,.67.73,5.11,5.11,0,0,1,.59.86l2,4-4.81,0L133.33,227a3.26,3.26,0,0,0-.76-1.07,1.92,1.92,0,0,0-1-.33h-.37l0,5.59Zm4.33-8.17H133a6.64,6.64,0,0,0,1.13-.18,1.11,1.11,0,0,0,.69-.43,1.25,1.25,0,0,0,.28-.79,1.28,1.28,0,0,0-.42-1,2.58,2.58,0,0,0-1.58-.37h-1.87Z"/>
  <path id="BOYFRIEND" class="cls-4" d="M148.46,218.21l7.58,0a4.13,4.13,0,0,1,2.9,1,3,3,0,0,1,1,2.33,2.88,2.88,0,0,1-.74,2,3.15,3.15,0,0,1-1.41.87,3.67,3.67,0,0,1,2.07,1.18,3.25,3.25,0,0,1,.65,2.08,3.63,3.63,0,0,1-.49,1.83,3.47,3.47,0,0,1-1.3,1.28,4.1,4.1,0,0,1-1.54.42c-.91.11-1.52.17-1.82.17l-7-.05Zm4,10.31,2.06,0a2.27,2.27,0,0,0,1.48-.37,1.21,1.21,0,0,0,.43-1,1.14,1.14,0,0,0-.41-.94,2.49,2.49,0,0,0-1.49-.36h-2.06Zm0-5.15,1.76,0a2.09,2.09,0,0,0,1.32-.32,1.18,1.18,0,0,0,.38-.94,1.13,1.13,0,0,0-.37-.9,2,2,0,0,0-1.29-.33h-1.78Zm9.63,1.49a6.21,6.21,0,0,1,6.81-6.74,6.88,6.88,0,0,1,5,1.79,6.6,6.6,0,0,1,1.73,4.93,7.94,7.94,0,0,1-.8,3.76,5.49,5.49,0,0,1-2.25,2.28,7.32,7.32,0,0,1-3.64.79,8.38,8.38,0,0,1-3.67-.73,5.62,5.62,0,0,1-2.34-2.25A7.46,7.46,0,0,1,162.14,224.86Zm4,0a4.43,4.43,0,0,0,.72,2.86,2.52,2.52,0,0,0,2,.88,2.5,2.5,0,0,0,2-.83,4.89,4.89,0,0,0,.73-3.05,4.09,4.09,0,0,0-.72-2.71,2.55,2.55,0,0,0-2-.86,2.47,2.47,0,0,0-2,.85A4.45,4.45,0,0,0,166.18,224.9Zm9.19-6.51,4.5,0,2.61,4.44,2.67-4.41,4.48,0-5.15,7.58,0,5.49-4.05,0,0-5.48Zm15.58.1,10,.07,0,2.81-5.94,0,0,2.29,5.08,0,0,2.64-5.08,0,0,5.35-4.07,0Zm12.16,13.19.08-13.11,6.75.05a9.86,9.86,0,0,1,2.87.34,3.06,3.06,0,0,1,1.59,1.2,3.61,3.61,0,0,1,.59,2.13,3.64,3.64,0,0,1-.47,1.88,3.74,3.74,0,0,1-1.29,1.27,4.7,4.7,0,0,1-1.43.51,4,4,0,0,1,1,.49,4.11,4.11,0,0,1,.65.69,6,6,0,0,1,.56.82l1.93,3.81-4.57,0-2.14-4a3,3,0,0,0-.72-1,1.69,1.69,0,0,0-1-.31h-.35l0,5.32Zm4.11-7.77h1.71a6.9,6.9,0,0,0,1.08-.17,1.06,1.06,0,0,0,.65-.41,1.15,1.15,0,0,0,.26-.76,1.19,1.19,0,0,0-.39-1,2.4,2.4,0,0,0-1.51-.35l-1.78,0Zm10.32-5.24,4.06,0-.09,13.11-4.06,0Zm7,0,10.85.08,0,2.79-6.79,0v2.08l6.3,0,0,2.68-6.3-.05,0,2.59,7,0,0,3-11-.07Zm13.26.09,3.78,0,4.88,7.28.05-7.25,3.82,0-.09,13.1-3.82,0-4.86-7.22,0,7.19-3.81,0Zm15.27.1,6,0a7.13,7.13,0,0,1,2.87.51,4.71,4.71,0,0,1,1.81,1.39,5.84,5.84,0,0,1,1,2.11,9.56,9.56,0,0,1,.3,2.54,8.73,8.73,0,0,1-.5,3.26,5.35,5.35,0,0,1-1.34,1.93,4.44,4.44,0,0,1-1.83,1,9.68,9.68,0,0,1-2.41.34l-6,0Zm4,3-.05,7.16h1a4,4,0,0,0,1.81-.27,1.91,1.91,0,0,0,.85-1,6.42,6.42,0,0,0,.32-2.28,4.46,4.46,0,0,0-.66-2.85,2.88,2.88,0,0,0-2.25-.79Zm9.44-3.13,3.89,0,0,3a4.39,4.39,0,0,1-.71,2.61,5.53,5.53,0,0,1-2.36,1.67l-.84-1.6a3.85,3.85,0,0,0,1.43-.95,1.88,1.88,0,0,0,.44-1.13h-1.85Zm5,9,3.86-.22a2.86,2.86,0,0,0,.5,1.43,2.11,2.11,0,0,0,1.78.81,2,2,0,0,0,1.34-.4,1.22,1.22,0,0,0,.47-.94,1.16,1.16,0,0,0-.44-.91,5,5,0,0,0-2.07-.77,8.84,8.84,0,0,1-3.78-1.62,3.19,3.19,0,0,1-1.13-2.54,3.34,3.34,0,0,1,.6-1.9,3.77,3.77,0,0,1,1.77-1.4,8.13,8.13,0,0,1,3.22-.49,6.67,6.67,0,0,1,3.83,1,4.08,4.08,0,0,1,1.55,3l-3.82.19a2.08,2.08,0,0,0-.63-1.29,2.11,2.11,0,0,0-1.35-.41,1.67,1.67,0,0,0-1.06.29.91.91,0,0,0-.36.73.73.73,0,0,0,.29.57,3.48,3.48,0,0,0,1.35.49,17.1,17.1,0,0,1,3.8,1.18A4,4,0,0,1,282.9,226a3.6,3.6,0,0,1,.51,1.95,4.2,4.2,0,0,1-.71,2.32,4.38,4.38,0,0,1-2,1.6,8.05,8.05,0,0,1-3.16.53q-3.34,0-4.62-1.32A5.14,5.14,0,0,1,271.52,227.8Z"/>
  <path id="NAME" class="cls-1" d="M29.17,240.6l8,.05L47.5,256.06l.11-15.34,8.07.05L55.5,268.5l-8.08-.05-10.28-15.3L37,268.38,29,268.32Zm48.72,23.47L68.16,264l-1.38,4.57L58,268.52l10.61-27.66,9.34.06,10.24,27.8-9-.06Zm-1.74-6-3-10L70.06,258ZM91,241l11.27.07,4.23,16.9L111,241.14l11.26.08L122,268.94l-7,0,.14-21.15-5.55,21.11-6.35,0L98,247.64l-.15,21.14-7,0Zm36.64.24,23,.15,0,5.92-14.37-.09,0,4.41,13.33.09,0,5.65-13.33-.09,0,5.47,14.79.1,0,6.28L127.48,269Z"/>
  <path id="IS" class="cls-1" d="M168.48,242.65l7.71,0L176,267.6l-7.72-.05Zm11.78,16.74,7.32-.41a5.57,5.57,0,0,0,.95,2.72,4.07,4.07,0,0,0,3.39,1.54,3.78,3.78,0,0,0,2.54-.76,2.33,2.33,0,0,0,.91-1.78,2.3,2.3,0,0,0-.84-1.74,9.59,9.59,0,0,0-3.93-1.47c-3.37-.78-5.77-1.81-7.2-3.07a6.1,6.1,0,0,1-2.14-4.82A6.53,6.53,0,0,1,182.4,246a7.28,7.28,0,0,1,3.36-2.66,15.37,15.37,0,0,1,6.13-.94q4.77,0,7.26,1.82a7.67,7.67,0,0,1,2.95,5.67l-7.26.38a3.86,3.86,0,0,0-1.2-2.46,3.92,3.92,0,0,0-2.55-.78,3.08,3.08,0,0,0-2,.56,1.7,1.7,0,0,0-.69,1.38,1.4,1.4,0,0,0,.55,1.07,6.31,6.31,0,0,0,2.58.93,32.44,32.44,0,0,1,7.21,2.25,7.64,7.64,0,0,1,3.16,2.78,7.08,7.08,0,0,1,1,3.7,7.9,7.9,0,0,1-1.36,4.4,8.24,8.24,0,0,1-3.72,3,15,15,0,0,1-6,1c-4.24,0-7.16-.86-8.78-2.51A9.65,9.65,0,0,1,180.26,259.39Zm37.24.67-6.45,0v-.65a8.15,8.15,0,0,1,.39-2.67,6.12,6.12,0,0,1,1.13-1.87,34.44,34.44,0,0,1,3.34-3,3,3,0,0,0,1.39-2,2,2,0,0,0-.54-1.46,2.45,2.45,0,0,0-1.67-.53,2.7,2.7,0,0,0-2,.79,4.63,4.63,0,0,0-1,2.78l-6.59-.86a9,9,0,0,1,2.68-5.84c1.55-1.46,3.9-2.19,7.07-2.16a10.41,10.41,0,0,1,6,1.58,6.45,6.45,0,0,1,3.06,5.59,5.4,5.4,0,0,1-.82,2.78,13.77,13.77,0,0,1-3.28,3.26,8.66,8.66,0,0,0-2.18,2.17A4.41,4.41,0,0,0,217.5,260.06Zm-6.69,1.67,6.92,0,0,6.1-6.92-.05Z"/>
  <path id="CHUCK1" class="cls-3" d="M46.17,294.66l7,2.18a13,13,0,0,1-2.28,4.94,9.64,9.64,0,0,1-3.81,3,14.23,14.23,0,0,1-5.78,1,16.84,16.84,0,0,1-6.93-1.28,11.06,11.06,0,0,1-4.62-4.38,14.73,14.73,0,0,1-1.9-8q0-6.47,3.5-9.92t9.76-3.4a13.21,13.21,0,0,1,7.73,2A11.68,11.68,0,0,1,53,287l-7.12,1.54a6,6,0,0,0-.77-1.75,4.49,4.49,0,0,0-1.64-1.43A5.09,5.09,0,0,0,37.11,287,9.21,9.21,0,0,0,36,292.11q0,4.33,1.28,5.95a4.47,4.47,0,0,0,3.68,1.63,4.48,4.48,0,0,0,3.5-1.27A7.94,7.94,0,0,0,46.17,294.66Zm11.11-15.32,8,.05-.06,9.12,8.8.06.06-9.12,8.09.05L82,305.56,74,305.51,74,295l-8.8-.06-.07,10.54-8-.05Zm47.25.31,8,.06-.1,15.52a13,13,0,0,1-.75,4.36,9.42,9.42,0,0,1-2.28,3.57,9,9,0,0,1-3.24,2.14,16.12,16.12,0,0,1-5.64.83,35.24,35.24,0,0,1-4.15-.29,11.07,11.07,0,0,1-3.76-1.08,9.38,9.38,0,0,1-2.74-2.27,8.27,8.27,0,0,1-1.7-3,15.39,15.39,0,0,1-.72-4.41l.11-15.53,8,0-.1,15.9a4.52,4.52,0,0,0,1.16,3.34,5.09,5.09,0,0,0,6.54.06,4.54,4.54,0,0,0,1.2-3.34Zm30.61,15.6,7,2.18a12.87,12.87,0,0,1-2.27,4.95,9.81,9.81,0,0,1-3.81,3,14.27,14.27,0,0,1-5.78,1,16.68,16.68,0,0,1-6.93-1.28,11,11,0,0,1-4.62-4.37,14.68,14.68,0,0,1-1.9-8q0-6.46,3.5-9.91t9.76-3.41a13.18,13.18,0,0,1,7.72,2,11.68,11.68,0,0,1,4.15,6.15l-7.12,1.53a6,6,0,0,0-.77-1.75,4.7,4.7,0,0,0-1.65-1.43,4.61,4.61,0,0,0-2.18-.51,4.74,4.74,0,0,0-4.21,2.17,9.31,9.31,0,0,0-1.13,5.12c0,2.89.4,4.88,1.27,5.95a5.2,5.2,0,0,0,7.19.36A8.08,8.08,0,0,0,135.14,295.25Zm11.11-15.32,8.05.06-.07,9.84,8.5-9.79,10.71.07-9.57,9.78,9.83,16.29-9.92-.07-5.42-10.75-4.19,4.33,0,6.35-8.05-.05Z"/>
  <path id="RIGHT" class="cls-1" d="M184.53,306.22l.08-11.91,6.13,0a9,9,0,0,1,2.61.31,2.8,2.8,0,0,1,1.45,1.09,3.38,3.38,0,0,1,.54,1.94,3.21,3.21,0,0,1-1.61,2.87,4.53,4.53,0,0,1-1.29.46,4.09,4.09,0,0,1,.95.44,3.57,3.57,0,0,1,.59.64,5,5,0,0,1,.51.74l1.76,3.46-4.16,0-2-3.66a2.61,2.61,0,0,0-.66-.92,1.48,1.48,0,0,0-.9-.28h-.32l0,4.84Zm3.74-7.06h1.55a5.94,5.94,0,0,0,1-.15,1,1,0,0,0,.6-.37,1.07,1.07,0,0,0,.24-.69,1.11,1.11,0,0,0-.36-.89,2.16,2.16,0,0,0-1.37-.32h-1.62Zm9.38-4.76,3.69,0-.08,11.92-3.69,0Zm12.28,7.68V299.6l5.69,0,0,5.08a11.77,11.77,0,0,1-2.9,1.49,9.79,9.79,0,0,1-3,.39,7.24,7.24,0,0,1-3.46-.75,5,5,0,0,1-2.06-2.17,7.11,7.11,0,0,1-.71-3.29,6.81,6.81,0,0,1,.83-3.39,5.21,5.21,0,0,1,2.37-2.17,7.8,7.8,0,0,1,3.26-.56,9.34,9.34,0,0,1,3,.38,3.78,3.78,0,0,1,1.61,1.12,4.91,4.91,0,0,1,1,1.91l-3.55.62a1.92,1.92,0,0,0-.74-1,2.31,2.31,0,0,0-1.34-.37,2.41,2.41,0,0,0-1.93.83,4,4,0,0,0-.74,2.66,4.19,4.19,0,0,0,.71,2.77,2.58,2.58,0,0,0,2,.84,4.16,4.16,0,0,0,1.18-.17,6.53,6.53,0,0,0,1.29-.6v-1.13Zm7.94-7.55,3.68,0,0,4.17,4,0,0-4.17,3.7,0-.08,11.91-3.69,0,0-4.82-4,0,0,4.82-3.68,0Zm13,.09,11.2.07,0,2.94-3.76,0-.06,9-3.68,0,.06-9-3.76,0Z"/>
  <path id="SILENCE1" class="cls-5" d="M344.7,274l8.3-.52a6.4,6.4,0,0,0,1.09,3.08,4.63,4.63,0,0,0,3.85,1.71,4.22,4.22,0,0,0,2.88-.88,2.51,2.51,0,0,0,.05-4c-.64-.58-2.13-1.12-4.47-1.64q-5.73-1.29-8.18-3.42a6.9,6.9,0,0,1-2.46-5.45,7.4,7.4,0,0,1,1.26-4.11,8.29,8.29,0,0,1,3.79-3,17.67,17.67,0,0,1,6.94-1.11q5.42,0,8.25,2a8.71,8.71,0,0,1,3.38,6.4l-8.22.48a3.85,3.85,0,0,0-4.27-3.64,3.52,3.52,0,0,0-2.3.65,2,2,0,0,0-.77,1.57,1.58,1.58,0,0,0,.64,1.21,7.19,7.19,0,0,0,2.93,1,36.63,36.63,0,0,1,8.19,2.49,8.63,8.63,0,0,1,3.6,3.13,8,8,0,0,1,1.12,4.18,9,9,0,0,1-1.5,5,9.45,9.45,0,0,1-4.19,3.47,17,17,0,0,1-6.8,1.18q-7.2,0-10-2.77A10.89,10.89,0,0,1,344.7,274ZM375,255.1h8.74v28.22H375Zm15,0h8.72v21.27h13.61v6.95H390Zm26.27,0h23.38v6H425.06v4.48h13.57v5.76H425.06v5.56h15.05v6.39h-23.8Zm28.55,0H453l10.63,15.61V255.1h8.22v28.22h-8.22l-10.57-15.49v15.49h-8.21Zm51.58,16.67,7.64,2.31a14,14,0,0,1-2.42,5.37,10.6,10.6,0,0,1-4.11,3.26,15.43,15.43,0,0,1-6.25,1.09,18.19,18.19,0,0,1-7.52-1.33,11.9,11.9,0,0,1-5-4.71,15.93,15.93,0,0,1-2.12-8.62q0-7,3.73-10.76t10.54-3.76q5.33,0,8.38,2.16a12.65,12.65,0,0,1,4.53,6.62l-7.7,1.71a6.84,6.84,0,0,0-.84-1.89,5.38,5.38,0,0,0-8.71.31,10.18,10.18,0,0,0-1.19,5.56c0,3.12.47,5.27,1.42,6.43a4.9,4.9,0,0,0,4,1.74,4.84,4.84,0,0,0,3.78-1.41A8.61,8.61,0,0,0,496.44,271.77ZM508.3,255.1h23.37v6H517v4.48h13.57v5.76H517v5.56h15.05v6.39H508.3Z"/>
  <path id="SILENCE2" class="cls-5" d="M317.62,237.8l7.12-.45a5.37,5.37,0,0,0,.95,2.64,3.93,3.93,0,0,0,3.3,1.48,3.6,3.6,0,0,0,2.47-.76,2.16,2.16,0,0,0,.05-3.43,9.73,9.73,0,0,0-3.84-1.4q-4.94-1.11-7-2.95a5.91,5.91,0,0,1-2.11-4.68,6.39,6.39,0,0,1,1.08-3.53,7.27,7.27,0,0,1,3.26-2.61,15.22,15.22,0,0,1,6-1c3.09,0,5.46.58,7.08,1.73a7.44,7.44,0,0,1,2.9,5.5l-7.06.41a3.29,3.29,0,0,0-3.67-3.12,3,3,0,0,0-2,.55,1.7,1.7,0,0,0-.66,1.35,1.37,1.37,0,0,0,.55,1,6,6,0,0,0,2.51.89,31.82,31.82,0,0,1,7,2.14,7.39,7.39,0,0,1,3.09,2.69,6.78,6.78,0,0,1,1,3.59,7.69,7.69,0,0,1-1.29,4.3,8.07,8.07,0,0,1-3.61,3,14.51,14.51,0,0,1-5.83,1c-4.13,0-7-.79-8.57-2.38A9.39,9.39,0,0,1,317.62,237.8Zm26.05-16.23h7.51v24.25h-7.51Zm12.89,0h7.49v18.28h11.69v6H356.56Zm22.57,0H399.2v5.18H386.63v3.85h11.66v5H386.63v4.78h12.93v5.49H379.13Zm24.52,0h7L419.77,235V221.57h7.06v24.25h-7.06l-9.08-13.31v13.31h-7Zm44.29,14.32,6.57,2a12.17,12.17,0,0,1-2.08,4.61,9.07,9.07,0,0,1-3.53,2.8,13.39,13.39,0,0,1-5.37.94,15.54,15.54,0,0,1-6.46-1.15,10.23,10.23,0,0,1-4.32-4,13.73,13.73,0,0,1-1.82-7.4q0-6,3.2-9.25t9.05-3.23a12.29,12.29,0,0,1,7.2,1.85,10.89,10.89,0,0,1,3.9,5.69l-6.62,1.47a5.7,5.7,0,0,0-.72-1.62,4.62,4.62,0,0,0-7.48.27,8.71,8.71,0,0,0-1,4.77c0,2.68.41,4.53,1.22,5.52a4.82,4.82,0,0,0,6.69.29A7.45,7.45,0,0,0,447.94,235.89Zm10.19-14.32H478.2v5.18H465.64v3.85h11.65v5H465.64v4.78h12.93v5.49H458.13Z"/>
  <path id="I1" class="cls-1" d="M35.13,345.8H49.87v47.59H35.13ZM57,370.93H76.22v10.22H57Z"/>
  <path id="I2" class="cls-1" d="M76.27,345.52h3.62v2.71H76.27Zm0,4h3.62v10.39H76.27Z"/>
  <path id="YES2" class="cls-1" d="M556.53,219.58h15.09l8.85,14.82,8.88-14.82h15l-17.09,25.54v18.4H573.65v-18.4Zm52.17,0h36.39V229H622.31v7h21.13v9H622.31v8.66h23.44v9.95h-37Zm42,29.41,12.92-.81a10,10,0,0,0,1.7,4.79,7.19,7.19,0,0,0,6,2.67,6.63,6.63,0,0,0,4.48-1.36,4.11,4.11,0,0,0,1.58-3.17,4,4,0,0,0-1.5-3.05q-1.5-1.35-7-2.55-8.92-2-12.74-5.34a10.73,10.73,0,0,1-3.84-8.48,11.52,11.52,0,0,1,2-6.4,13.06,13.06,0,0,1,5.9-4.74q3.94-1.73,10.81-1.72,8.43,0,12.85,3.13t5.26,10l-12.8.75a6,6,0,0,0-6.66-5.67,5.45,5.45,0,0,0-3.57,1,3.07,3.07,0,0,0-1.2,2.44,2.45,2.45,0,0,0,1,1.89q1,.87,4.56,1.62,8.91,1.91,12.76,3.88a13.44,13.44,0,0,1,5.6,4.87,12.35,12.35,0,0,1,1.76,6.5,13.94,13.94,0,0,1-2.34,7.8,14.63,14.63,0,0,1-6.54,5.41,26.38,26.38,0,0,1-10.58,1.84q-11.21,0-15.53-4.31A17,17,0,0,1,650.7,249Z"/>
  <path id="MR" class="cls-6" d="M700.94,219.42h4.82l1.86,7.23,1.85-7.23h4.83V231.3h-3v-9.06L709,231.3h-2.73l-2.31-9.06v9.06h-3Zm15.75,11.88V219.42h6.12a9.07,9.07,0,0,1,2.6.29,2.8,2.8,0,0,1,1.45,1.09,3.3,3.3,0,0,1,.55,1.92,3.33,3.33,0,0,1-.42,1.71,3.48,3.48,0,0,1-1.16,1.16,4.44,4.44,0,0,1-1.29.47,3.4,3.4,0,0,1,1,.44,3.26,3.26,0,0,1,.59.62,4.13,4.13,0,0,1,.51.74l1.78,3.44h-4.15l-2-3.63a2.81,2.81,0,0,0-.66-.91,1.52,1.52,0,0,0-.9-.28h-.33v4.82Zm3.68-7.06h1.55a5.55,5.55,0,0,0,1-.17.91.91,0,0,0,.6-.37,1.12,1.12,0,0,0,.23-.69,1.09,1.09,0,0,0-.36-.88,2.19,2.19,0,0,0-1.37-.31h-1.62Zm9,3.76h3.52v3.3h-3.52Z"/>
  <path id="SALVATORE" class="cls-6" d="M600.59,282.87l4.12-.23a2.58,2.58,0,0,0,.54,1.36,2.41,2.41,0,0,0,1.91.75,2.36,2.36,0,0,0,1.43-.38,1.14,1.14,0,0,0,.5-.9,1.12,1.12,0,0,0-.48-.87,6.16,6.16,0,0,0-2.21-.72,10,10,0,0,1-4.06-1.51,2.9,2.9,0,0,1-1.22-2.41,3,3,0,0,1,.62-1.81,4,4,0,0,1,1.88-1.34,9.69,9.69,0,0,1,3.44-.49,7.62,7.62,0,0,1,4.09.89,3.73,3.73,0,0,1,1.68,2.82l-4.08.21a1.84,1.84,0,0,0-.68-1.22,2.44,2.44,0,0,0-1.44-.38,1.86,1.86,0,0,0-1.13.28.82.82,0,0,0-.38.69.67.67,0,0,0,.31.54,3.86,3.86,0,0,0,1.45.46,19.56,19.56,0,0,1,4.06,1.1,4.13,4.13,0,0,1,1.79,1.38,3.22,3.22,0,0,1,.56,1.84,3.62,3.62,0,0,1-.75,2.21,4.53,4.53,0,0,1-2.08,1.54,9.29,9.29,0,0,1-3.37.52q-3.57,0-4.94-1.22A4.61,4.61,0,0,1,600.59,282.87Zm23.48,2.06h-4.91l-.68,2.06h-4.42l5.26-12.46H624L629.3,287h-4.53Zm-.9-2.69-1.54-4.48-1.53,4.48Zm7.5-7.71H635v9.39h6.75V287H630.67Zm10.68,0h4.52l3.15,9,3.11-9h4.39L651.32,287h-4.69Zm24.07,10.4h-4.91l-.68,2.06h-4.42l5.26-12.46h4.72L670.65,287h-4.53Zm-.9-2.69L663,277.76l-1.53,4.48Zm5.17-7.71h13.15v3.08h-4.41V287H674.1v-9.38h-4.41Zm13.89,6.24a6,6,0,0,1,1.91-4.75,7.71,7.71,0,0,1,5.32-1.7A7.85,7.85,0,0,1,696.2,276a5.91,5.91,0,0,1,1.89,4.68,7,7,0,0,1-.83,3.58,5.6,5.6,0,0,1-2.39,2.17,8.64,8.64,0,0,1-3.89.78,9.89,9.89,0,0,1-3.92-.67,5.69,5.69,0,0,1-2.51-2.13A6.36,6.36,0,0,1,683.58,280.77Zm4.33,0a3.84,3.84,0,0,0,.79,2.72,3.24,3.24,0,0,0,4.3,0,4.22,4.22,0,0,0,.76-2.9A3.56,3.56,0,0,0,693,278a2.89,2.89,0,0,0-2.16-.81,2.79,2.79,0,0,0-2.1.83A3.84,3.84,0,0,0,687.91,280.78ZM700.47,287V274.53h7.21a11.33,11.33,0,0,1,3.06.31,3.22,3.22,0,0,1,1.71,1.13,3.14,3.14,0,0,1,.65,2,3.18,3.18,0,0,1-.49,1.79,3.78,3.78,0,0,1-1.37,1.22,6,6,0,0,1-1.52.49,4.6,4.6,0,0,1,1.13.46,4,4,0,0,1,.69.65,6.19,6.19,0,0,1,.61.78l2.09,3.61h-4.89L707,283.18a3,3,0,0,0-.78-1,2,2,0,0,0-1.06-.29h-.38V287Zm4.35-7.41h1.82a7.74,7.74,0,0,0,1.15-.17,1.17,1.17,0,0,0,.7-.39,1.08,1.08,0,0,0,.27-.73,1.06,1.06,0,0,0-.43-.92,2.81,2.81,0,0,0-1.61-.32h-1.9Zm10.79-5.05H727.2v2.66H720v2h6.73v2.54H720v2.46h7.46V287h-11.8Z"/>
  <path id="WAS1" class="cls-1" d="M87.52,346.61h3.8l1.37,7.25,2-7.25h3.79l2,7.24,1.37-7.24h3.78l-2.86,12.95H98.86l-2.27-8.16-2.27,8.16H90.4Zm27.39,10.81h-4.54l-.63,2.14h-4.09l4.87-12.95h4.36l4.87,12.95h-4.19Zm-.83-2.8L112.65,350l-1.41,4.66Zm6.25.65,3.8-.24a3,3,0,0,0,.51,1.42,2.13,2.13,0,0,0,1.77.79,2,2,0,0,0,1.32-.41,1.19,1.19,0,0,0,.46-.93,1.2,1.2,0,0,0-.44-.9,5,5,0,0,0-2-.75,8.84,8.84,0,0,1-3.76-1.57,3.19,3.19,0,0,1-1.13-2.51,3.35,3.35,0,0,1,.58-1.88,3.91,3.91,0,0,1,1.74-1.4,8.14,8.14,0,0,1,3.19-.51,6.47,6.47,0,0,1,3.78.93,4,4,0,0,1,1.55,2.94l-3.77.22a1.75,1.75,0,0,0-2-1.67,1.62,1.62,0,0,0-1,.29.91.91,0,0,0-.36.72.72.72,0,0,0,.3.56,3.23,3.23,0,0,0,1.34.48,16.83,16.83,0,0,1,3.76,1.14,3.94,3.94,0,0,1,1.65,1.44,3.58,3.58,0,0,1,.52,1.91,4.11,4.11,0,0,1-.69,2.3,4.36,4.36,0,0,1-1.93,1.6,7.8,7.8,0,0,1-3.12.54c-2.2,0-3.73-.42-4.57-1.27A5,5,0,0,1,120.33,355.27Z"/>
  <path id="AH" class="cls-1" d="M145.52,357.2H141l-.62,2.11h-4l4.81-12.8h4.32l4.81,12.8h-4.14Zm-.83-2.77-1.41-4.6-1.4,4.6Zm6.88-7.92h4V351h4.32v-4.48h4v12.8h-4v-5.18h-4.32v5.18h-4Z"/>
  <path id="I3" class="cls-1" d="M84.42,372.43h5v16.72h-5Z"/>
  <path id="WAS2" class="cls-1" d="M98.53,372.55h4.73l1.71,9,2.49-9h4.72l2.5,9,1.71-9h4.71l-3.55,16.13h-4.89l-2.83-10.15L107,388.68h-4.89ZM132.65,386H127l-.78,2.66h-5.1l6.07-16.13h5.44l6.06,16.13h-5.22Zm-1-3.49-1.78-5.8-1.77,5.8Zm7.78.82,4.74-.3a3.53,3.53,0,0,0,.63,1.76,2.64,2.64,0,0,0,2.2,1,2.48,2.48,0,0,0,1.65-.5,1.52,1.52,0,0,0,.57-1.16,1.48,1.48,0,0,0-.55-1.13,6.31,6.31,0,0,0-2.55-.93,10.87,10.87,0,0,1-4.68-2A3.93,3.93,0,0,1,140,377a4.21,4.21,0,0,1,.72-2.34,4.78,4.78,0,0,1,2.17-1.74,10,10,0,0,1,4-.64,8.2,8.2,0,0,1,4.72,1.15,5,5,0,0,1,1.93,3.66l-4.7.28a2.56,2.56,0,0,0-.79-1.59,2.53,2.53,0,0,0-1.66-.49,2,2,0,0,0-1.31.37,1.12,1.12,0,0,0-.44.89.93.93,0,0,0,.37.7,4,4,0,0,0,1.67.59,20.83,20.83,0,0,1,4.68,1.43,4.83,4.83,0,0,1,2.06,1.79,4.5,4.5,0,0,1,.65,2.38,5.17,5.17,0,0,1-.86,2.87,5.35,5.35,0,0,1-2.4,2,9.72,9.72,0,0,1-3.89.68q-4.11,0-5.7-1.59A6.19,6.19,0,0,1,139.4,383.35Z"/>
  <path id="CONFUSED" class="cls-1" d="M42,412.89l4.09,1.23a7.6,7.6,0,0,1-1.3,2.87,5.62,5.62,0,0,1-2.19,1.74,8.27,8.27,0,0,1-3.34.58,9.82,9.82,0,0,1-4-.71,6.4,6.4,0,0,1-2.69-2.51,8.58,8.58,0,0,1-1.13-4.61,7.82,7.82,0,0,1,2-5.75,7.57,7.57,0,0,1,5.63-2,7.71,7.71,0,0,1,4.48,1.15A6.77,6.77,0,0,1,46,408.41l-4.11.92a3.93,3.93,0,0,0-.45-1,2.6,2.6,0,0,0-1-.82,2.78,2.78,0,0,0-1.26-.29,2.73,2.73,0,0,0-2.43,1.27,5.37,5.37,0,0,0-.64,3,5.64,5.64,0,0,0,.76,3.44,3,3,0,0,0,4.16.18A4.56,4.56,0,0,0,42,412.89Zm5.76-1.36a7.15,7.15,0,0,1,7.79-7.81,7.91,7.91,0,0,1,5.8,2,7.62,7.62,0,0,1,2,5.66,9.2,9.2,0,0,1-.89,4.34A6.32,6.32,0,0,1,60,418.37a8.43,8.43,0,0,1-4.19.94,9.68,9.68,0,0,1-4.22-.81,6.37,6.37,0,0,1-2.71-2.57A8.55,8.55,0,0,1,47.79,411.53Zm4.66,0a5,5,0,0,0,.85,3.28,2.9,2.9,0,0,0,2.31,1,2.87,2.87,0,0,0,2.32-1,5.56,5.56,0,0,0,.83-3.51,4.68,4.68,0,0,0-.86-3.11,3,3,0,0,0-2.33-1,2.8,2.8,0,0,0-2.26,1A5,5,0,0,0,52.45,411.55ZM66,404H70.3L76,412.32V404h4.39v15.08H76l-5.64-8.28v8.28H66Zm17.54,0H95v3.24H88.17v2.63H94v3H88.17v6.16H83.49Zm23.84,0H112v9a7.59,7.59,0,0,1-.42,2.53,5.37,5.37,0,0,1-1.31,2.07,5.22,5.22,0,0,1-1.86,1.25,9.31,9.31,0,0,1-3.26.5,20.86,20.86,0,0,1-2.4-.15,6.33,6.33,0,0,1-2.18-.61,5.55,5.55,0,0,1-1.6-1.3,4.81,4.81,0,0,1-1-1.74,8.93,8.93,0,0,1-.43-2.55v-9h4.65v9.2a2.59,2.59,0,0,0,.68,1.92,2.92,2.92,0,0,0,3.78,0,2.59,2.59,0,0,0,.69-1.93Zm6.92,10.09,4.43-.28a3.4,3.4,0,0,0,.59,1.65,2.45,2.45,0,0,0,2,.91,2.24,2.24,0,0,0,1.54-.47,1.34,1.34,0,0,0,0-2.13,5.94,5.94,0,0,0-2.39-.87,10,10,0,0,1-4.37-1.84,3.67,3.67,0,0,1-1.32-2.91,4,4,0,0,1,.68-2.19,4.5,4.5,0,0,1,2-1.63,9.58,9.58,0,0,1,3.71-.59,7.55,7.55,0,0,1,4.41,1.08,4.61,4.61,0,0,1,1.8,3.42l-4.39.25a2,2,0,0,0-2.28-1.94,1.91,1.91,0,0,0-1.22.34,1.05,1.05,0,0,0-.42.84.86.86,0,0,0,.34.65,3.92,3.92,0,0,0,1.57.56,19.61,19.61,0,0,1,4.37,1.33,4.65,4.65,0,0,1,1.93,1.67,4.23,4.23,0,0,1,.6,2.23,4.78,4.78,0,0,1-.8,2.67,5,5,0,0,1-2.25,1.86,9.09,9.09,0,0,1-3.63.63c-2.56,0-4.34-.49-5.32-1.48A5.81,5.81,0,0,1,114.25,414.07Zm16-10.09h12.49v3.22h-7.82v2.39h7.25v3.08h-7.25v3h8v3.42H130.26Zm15.28,0h6.92a8.3,8.3,0,0,1,3.31.55,5.34,5.34,0,0,1,2.08,1.6,6.62,6.62,0,0,1,1.2,2.42,11.45,11.45,0,0,1,.37,2.92,10.31,10.31,0,0,1-.55,3.75,6.33,6.33,0,0,1-1.53,2.23,5,5,0,0,1-2.1,1.2,11,11,0,0,1-2.78.41h-6.92Zm4.66,3.41v8.24h1.14a4.9,4.9,0,0,0,2.08-.32,2.29,2.29,0,0,0,1-1.13,7.18,7.18,0,0,0,.35-2.62,5.08,5.08,0,0,0-.78-3.28,3.32,3.32,0,0,0-2.6-.89Z"/>
  <path id="YOU3" class="cls-1" d="M170.78,346.87H181.5l6.29,10.53,6.31-10.53h10.66L192.62,365V378.1H183V365ZM204,362.51q0-7.65,4.26-11.91t11.87-4.27q7.8,0,12,4.19t4.21,11.73a19.22,19.22,0,0,1-1.84,9,13.11,13.11,0,0,1-5.33,5.46,17.55,17.55,0,0,1-8.68,1.94,20,20,0,0,1-8.74-1.68,13.19,13.19,0,0,1-5.62-5.33A17.68,17.68,0,0,1,204,362.51Zm9.65,0q0,4.72,1.76,6.8a6.67,6.67,0,0,0,9.6,0q1.69-2,1.7-7.27,0-4.41-1.78-6.44a6.06,6.06,0,0,0-4.82-2,5.86,5.86,0,0,0-4.69,2.07Q213.69,357.78,213.69,362.55Zm48.24-15.68h9.63v18.61a15.79,15.79,0,0,1-.86,5.22A11.27,11.27,0,0,1,268,375a10.83,10.83,0,0,1-3.87,2.59,19.31,19.31,0,0,1-6.75,1,42.83,42.83,0,0,1-5-.31,13.23,13.23,0,0,1-4.51-1.27,11.24,11.24,0,0,1-3.31-2.69,9.89,9.89,0,0,1-2.06-3.6,18.58,18.58,0,0,1-.9-5.28V346.87h9.64v19.05a5.46,5.46,0,0,0,1.41,4,6.09,6.09,0,0,0,7.84,0,5.39,5.39,0,0,0,1.42-4Z"/>
  <path id="SEE" class="cls-1" d="M171.15,393.55l2.53-.16a1.89,1.89,0,0,0,.33.94,1.41,1.41,0,0,0,1.17.52,1.29,1.29,0,0,0,.88-.27.77.77,0,0,0,.31-.61.79.79,0,0,0-.29-.6,3.42,3.42,0,0,0-1.36-.5,5.73,5.73,0,0,1-2.49-1,2.11,2.11,0,0,1-.75-1.66,2.21,2.21,0,0,1,.38-1.25A2.64,2.64,0,0,1,173,388a5.51,5.51,0,0,1,2.12-.34,4.33,4.33,0,0,1,2.51.62,2.66,2.66,0,0,1,1,2l-2.51.14a1.27,1.27,0,0,0-.42-.84,1.3,1.3,0,0,0-.88-.27,1,1,0,0,0-.69.2.6.6,0,0,0-.24.48.5.5,0,0,0,.19.37,2.21,2.21,0,0,0,.89.31,11.5,11.5,0,0,1,2.5.76,2.65,2.65,0,0,1,1.09.95,2.44,2.44,0,0,1,.35,1.28,2.77,2.77,0,0,1-.46,1.52,2.91,2.91,0,0,1-1.28,1.06,5.12,5.12,0,0,1-2.07.36,4.21,4.21,0,0,1-3-.85A3.35,3.35,0,0,1,171.15,393.55Zm9.13-5.75h7.11v1.84h-4.45V391h4.13v1.75h-4.13v1.7h4.58v1.94h-7.24Zm8.66,0h7.12v1.84H191.6V391h4.13v1.75H191.6v1.7h4.58v1.94h-7.24Z"/>
  <path id="I4" class="cls-1" d="M206.14,387.8h2.66v8.59h-2.66Z"/>
  <path id="THOUGHT" class="cls-1" d="M216.19,387.8h8.07v2.12h-2.71v6.47H218.9v-6.47h-2.71Zm9.28,0h2.66v3H231v-3h2.66v8.59H231v-3.47h-2.9v3.47h-2.66Zm9.65,4.3a4.08,4.08,0,0,1,4.44-4.45,4.47,4.47,0,0,1,3.3,1.16A4.33,4.33,0,0,1,244,392a5.24,5.24,0,0,1-.51,2.47,3.58,3.58,0,0,1-1.46,1.5,4.8,4.8,0,0,1-2.39.54,5.43,5.43,0,0,1-2.4-.47,3.56,3.56,0,0,1-1.55-1.46A4.91,4.91,0,0,1,235.12,392.1Zm2.66,0a2.89,2.89,0,0,0,.48,1.87,1.82,1.82,0,0,0,2.64,0,3.17,3.17,0,0,0,.47-2,2.72,2.72,0,0,0-.49-1.78,1.69,1.69,0,0,0-1.33-.56,1.63,1.63,0,0,0-1.29.57A2.93,2.93,0,0,0,237.78,392.11ZM251,387.8h2.65v5.12a4.27,4.27,0,0,1-.24,1.44,3.11,3.11,0,0,1-.74,1.18,2.94,2.94,0,0,1-1.07.71,5.32,5.32,0,0,1-1.85.29,11.36,11.36,0,0,1-1.37-.09,3.43,3.43,0,0,1-1.24-.35,3,3,0,0,1-.91-.74,2.65,2.65,0,0,1-.57-1,5.26,5.26,0,0,1-.24-1.45V387.8h2.65V393a1.49,1.49,0,0,0,.39,1.1,1.68,1.68,0,0,0,2.15,0A1.46,1.46,0,0,0,251,393Zm8.73,5.48v-1.79h4.1v3.66a8.52,8.52,0,0,1-2.09,1.1,7.15,7.15,0,0,1-2.14.29,5.36,5.36,0,0,1-2.5-.52,3.57,3.57,0,0,1-1.49-1.56,5.1,5.1,0,0,1-.53-2.36,4.91,4.91,0,0,1,.58-2.45,3.78,3.78,0,0,1,1.7-1.58,5.46,5.46,0,0,1,2.35-.42,6.64,6.64,0,0,1,2.13.26,2.76,2.76,0,0,1,1.17.8,3.59,3.59,0,0,1,.7,1.38l-2.56.45a1.37,1.37,0,0,0-.54-.74,1.67,1.67,0,0,0-1-.26,1.72,1.72,0,0,0-1.39.61,2.88,2.88,0,0,0-.52,1.92,3,3,0,0,0,.52,2,1.85,1.85,0,0,0,1.47.6,3,3,0,0,0,.85-.13,5,5,0,0,0,.92-.44v-.81Zm5.69-5.48h2.65v3H271v-3h2.67v8.59H271v-3.47h-2.9v3.47h-2.65Zm9.38,0h8.06v2.12h-2.7v6.47h-2.66v-6.47h-2.7Z"/>
  <path id="YOU4" class="cls-1" d="M170.75,406.64h2.95l1.73,2.9,1.73-2.9h2.93l-3.34,5v3.6h-2.66v-3.6Zm9.15,4.3a4.06,4.06,0,0,1,4.43-4.44,4.5,4.5,0,0,1,3.31,1.15,4.33,4.33,0,0,1,1.16,3.22,5.24,5.24,0,0,1-.51,2.47,3.55,3.55,0,0,1-1.47,1.5,4.76,4.76,0,0,1-2.38.54,5.66,5.66,0,0,1-2.41-.46,3.62,3.62,0,0,1-1.54-1.47A4.81,4.81,0,0,1,179.9,410.94Zm2.65,0a2.89,2.89,0,0,0,.48,1.87,1.65,1.65,0,0,0,1.32.57,1.62,1.62,0,0,0,1.32-.55,3.22,3.22,0,0,0,.47-2,2.62,2.62,0,0,0-.49-1.77,1.65,1.65,0,0,0-1.33-.56,1.59,1.59,0,0,0-1.28.56A2.86,2.86,0,0,0,182.55,411Zm13.26-4.31h2.65v5.12a4.53,4.53,0,0,1-.23,1.44,3.13,3.13,0,0,1-.75,1.18,3,3,0,0,1-1.06.71,5.42,5.42,0,0,1-1.86.29,11.49,11.49,0,0,1-1.37-.09,3.56,3.56,0,0,1-1.24-.35,3.12,3.12,0,0,1-.91-.74,2.76,2.76,0,0,1-.56-1,4.9,4.9,0,0,1-.25-1.45v-5.12h2.65v5.24a1.49,1.49,0,0,0,.39,1.1,1.46,1.46,0,0,0,1.08.39,1.33,1.33,0,0,0,1.46-1.49Z"/>
  <path id="SAID" class="cls-1" d="M201.29,412.39l2.52-.16a2,2,0,0,0,.34.94,1.39,1.39,0,0,0,1.17.52,1.3,1.3,0,0,0,.88-.27.79.79,0,0,0,.3-.61.76.76,0,0,0-.29-.6,3.42,3.42,0,0,0-1.36-.5,5.85,5.85,0,0,1-2.49-1,2.11,2.11,0,0,1-.75-1.66,2.29,2.29,0,0,1,.38-1.25,2.61,2.61,0,0,1,1.16-.93,5.48,5.48,0,0,1,2.11-.33,4.29,4.29,0,0,1,2.51.61,2.64,2.64,0,0,1,1,1.95l-2.5.14a1.37,1.37,0,0,0-.42-.84,1.32,1.32,0,0,0-.88-.26,1.08,1.08,0,0,0-.7.19.59.59,0,0,0-.23.48.47.47,0,0,0,.19.37,2.09,2.09,0,0,0,.89.31,11.38,11.38,0,0,1,2.49.76,2.69,2.69,0,0,1,1.1,1,2.37,2.37,0,0,1,.34,1.27,2.66,2.66,0,0,1-.46,1.52,2.82,2.82,0,0,1-1.27,1.06,5.19,5.19,0,0,1-2.07.36,4.25,4.25,0,0,1-3-.85A3.29,3.29,0,0,1,201.29,412.39Zm14.41,1.42h-3l-.41,1.42h-2.71l3.22-8.59h2.9l3.23,8.59h-2.78Zm-.55-1.85-1-3.09-.94,3.09Zm4.71-5.32h2.66v8.59h-2.66Zm4.6,0h3.94a4.71,4.71,0,0,1,1.88.32,3,3,0,0,1,1.19.91,3.75,3.75,0,0,1,.68,1.37,6.48,6.48,0,0,1,.21,1.67,5.7,5.7,0,0,1-.31,2.13,3.63,3.63,0,0,1-.87,1.28,2.91,2.91,0,0,1-1.2.68,6.41,6.41,0,0,1-1.58.23h-3.94Zm2.65,1.95v4.69h.65a2.75,2.75,0,0,0,1.18-.18,1.3,1.3,0,0,0,.56-.65,4.11,4.11,0,0,0,.19-1.49,2.89,2.89,0,0,0-.44-1.87,1.91,1.91,0,0,0-1.48-.5Z"/>
  <path id="FRIEND" class="cls-7" d="M234.71,406.64h6.56v1.85h-3.89V410h3.33v1.73h-3.33v3.51h-2.67Zm8,8.59v-8.59h4.42a6.43,6.43,0,0,1,1.88.21,2,2,0,0,1,1.05.79,2.33,2.33,0,0,1,.4,1.39,2.27,2.27,0,0,1-1.14,2.07,3.19,3.19,0,0,1-.93.34,2.82,2.82,0,0,1,.69.32,2.78,2.78,0,0,1,.42.45,3.08,3.08,0,0,1,.37.53l1.29,2.49h-3l-1.42-2.62a2,2,0,0,0-.48-.66,1.07,1.07,0,0,0-.65-.2h-.24v3.48Zm2.66-5.11h1.12a4.58,4.58,0,0,0,.71-.11.76.76,0,0,0,.43-.27.81.81,0,0,0,.16-.5.78.78,0,0,0-.26-.64,1.56,1.56,0,0,0-1-.22H245.4Zm6.74-3.48h2.66v8.59h-2.66Zm4.56,0h7.11v1.84h-4.45v1.36h4.13v1.75h-4.13v1.7h4.58v1.94H256.7Zm8.69,0h2.48l3.23,4.76v-4.76h2.51v8.59H271.1l-3.21-4.71v4.71h-2.5Zm10,0h4a4.71,4.71,0,0,1,1.88.32,3,3,0,0,1,1.19.91,3.75,3.75,0,0,1,.68,1.37,6.48,6.48,0,0,1,.21,1.67A5.92,5.92,0,0,1,283,413a3.63,3.63,0,0,1-.87,1.28,2.86,2.86,0,0,1-1.2.68,6.41,6.41,0,0,1-1.58.23h-4Zm2.66,1.95v4.69h.65a2.78,2.78,0,0,0,1.18-.18,1.24,1.24,0,0,0,.55-.65,3.86,3.86,0,0,0,.2-1.49,3,3,0,0,0-.44-1.87,1.91,1.91,0,0,0-1.48-.5Zm-44.24,8.5v-.72h50v.72Z"/>
  <path id="CHUCK2" class="cls-3" d="M50.09,445.79,57,447.88a12.93,12.93,0,0,1-2.2,4.87,9.52,9.52,0,0,1-3.72,2.94,13.8,13.8,0,0,1-5.66,1,16.38,16.38,0,0,1-6.81-1.21,10.81,10.81,0,0,1-4.57-4.26,14.55,14.55,0,0,1-1.91-7.81q0-6.35,3.37-9.76t9.55-3.4a13,13,0,0,1,7.6,1.95,11.5,11.5,0,0,1,4.11,6l-7,1.55A6,6,0,0,0,49,438a4.5,4.5,0,0,0-1.62-1.39,5,5,0,0,0-6.26,1.67,9.2,9.2,0,0,0-1.08,5q0,4.25,1.29,5.82A4.43,4.43,0,0,0,45,450.76a4.42,4.42,0,0,0,3.43-1.27A7.86,7.86,0,0,0,50.09,445.79Zm10.8-15.11h7.9v8.95h8.64v-8.95h7.93v25.57H77.43V445.91H68.79v10.34h-7.9Zm46.36,0h7.89v15.24a12.85,12.85,0,0,1-.71,4.28,9.34,9.34,0,0,1-2.21,3.52,9,9,0,0,1-3.17,2.12,16.15,16.15,0,0,1-5.53.85,35.73,35.73,0,0,1-4.07-.26,10.74,10.74,0,0,1-3.69-1,9.28,9.28,0,0,1-2.71-2.2,8.31,8.31,0,0,1-1.69-2.95,15.59,15.59,0,0,1-.73-4.32V430.68h7.88v15.6a4.49,4.49,0,0,0,1.16,3.27,5,5,0,0,0,6.42,0,4.43,4.43,0,0,0,1.16-3.29Zm30.14,15.11,6.93,2.09a12.93,12.93,0,0,1-2.2,4.87,9.52,9.52,0,0,1-3.72,2.94,13.83,13.83,0,0,1-5.66,1,16.38,16.38,0,0,1-6.81-1.21,10.81,10.81,0,0,1-4.57-4.26,14.55,14.55,0,0,1-1.91-7.81q0-6.35,3.37-9.76t9.55-3.4a13,13,0,0,1,7.6,1.95,11.43,11.43,0,0,1,4.1,6l-7,1.55a6,6,0,0,0-.77-1.71,4.5,4.5,0,0,0-1.62-1.39,5,5,0,0,0-6.26,1.67,9.19,9.19,0,0,0-1.09,5q0,4.25,1.3,5.82a5.09,5.09,0,0,0,7.05.31A7.86,7.86,0,0,0,137.39,445.79Zm10.8-15.11h7.9v9.67l8.28-9.67h10.51l-9.33,9.65,9.75,15.92h-9.73l-5.4-10.51L156.09,450v6.24h-7.9Z"/>
  <path id="IS2" class="cls-1" d="M190.39,429.24h2.66v8.59h-2.66Zm4.1,5.75,2.53-.16a1.82,1.82,0,0,0,.33.93,1.39,1.39,0,0,0,1.17.53,1.3,1.3,0,0,0,.88-.27.82.82,0,0,0,.31-.62.8.8,0,0,0-.3-.6,3.39,3.39,0,0,0-1.36-.49,5.84,5.84,0,0,1-2.49-1.05,2.08,2.08,0,0,1-.75-1.66,2.24,2.24,0,0,1,.39-1.25,2.5,2.5,0,0,1,1.15-.92,5.28,5.28,0,0,1,2.11-.34,4.29,4.29,0,0,1,2.51.61,2.64,2.64,0,0,1,1,1.95l-2.5.15a1.4,1.4,0,0,0-.42-.85,1.38,1.38,0,0,0-.88-.26,1.08,1.08,0,0,0-.7.2.61.61,0,0,0-.23.47.47.47,0,0,0,.19.37,2.12,2.12,0,0,0,.89.32,10.85,10.85,0,0,1,2.49.76,2.54,2.54,0,0,1,1.1.95,2.39,2.39,0,0,1,.34,1.27,2.79,2.79,0,0,1-.45,1.53,2.89,2.89,0,0,1-1.28,1.05,5.19,5.19,0,0,1-2.07.36,4.26,4.26,0,0,1-3-.84A3.27,3.27,0,0,1,194.49,435Z"/>
  <path id="JUST" class="cls-1" d="M213.76,429.24h2.66v4.66a7.16,7.16,0,0,1-.26,2.24,2.51,2.51,0,0,1-1,1.3,3.46,3.46,0,0,1-2,.53,4.61,4.61,0,0,1-2-.35,2.49,2.49,0,0,1-1.1-1,3.77,3.77,0,0,1-.46-1.67l2.53-.35a3.26,3.26,0,0,0,.1.85,1,1,0,0,0,.32.44.69.69,0,0,0,.43.12.73.73,0,0,0,.66-.34,2.3,2.3,0,0,0,.2-1.11Zm10,0h2.65v5.12a4.25,4.25,0,0,1-.24,1.43,3,3,0,0,1-.74,1.19,3.13,3.13,0,0,1-1.06.71,5.43,5.43,0,0,1-1.86.28c-.42,0-.87,0-1.37-.08a3.71,3.71,0,0,1-1.24-.35,3.29,3.29,0,0,1-.91-.74,2.76,2.76,0,0,1-.56-1,5,5,0,0,1-.25-1.45v-5.12h2.65v5.24a1.48,1.48,0,0,0,.39,1.09,1.66,1.66,0,0,0,2.15,0,1.49,1.49,0,0,0,.39-1.1Zm3.95,5.75,2.52-.16a1.91,1.91,0,0,0,.34.93,1.39,1.39,0,0,0,1.17.53,1.26,1.26,0,0,0,.87-.27.79.79,0,0,0,.31-.62.82.82,0,0,0-.29-.6,3.46,3.46,0,0,0-1.36-.49,5.84,5.84,0,0,1-2.49-1.05,2.08,2.08,0,0,1-.75-1.66,2.31,2.31,0,0,1,.38-1.25,2.53,2.53,0,0,1,1.16-.92,5.28,5.28,0,0,1,2.11-.34,4.31,4.31,0,0,1,2.51.61,2.64,2.64,0,0,1,1,1.95l-2.5.15a1.4,1.4,0,0,0-.42-.85,1.38,1.38,0,0,0-.88-.26,1.08,1.08,0,0,0-.7.2.59.59,0,0,0-.24.47.48.48,0,0,0,.2.37,2.06,2.06,0,0,0,.89.32,10.85,10.85,0,0,1,2.49.76,2.6,2.6,0,0,1,1.1.95,2.39,2.39,0,0,1,.34,1.27,2.72,2.72,0,0,1-.46,1.53,2.87,2.87,0,0,1-1.27,1.05,5.19,5.19,0,0,1-2.07.36,4.28,4.28,0,0,1-3-.84A3.31,3.31,0,0,1,227.73,435Zm8.52-5.75h8.07v2.12h-2.71v6.47H239v-6.47h-2.71Z"/>
  <path id="A2" class="cls-1" d="M256.83,436.41h-3l-.42,1.42h-2.71l3.23-8.59h2.9l3.22,8.59h-2.77Zm-.56-1.86-.94-3.09-.94,3.09Z"/>
  <path id="BOYFRIEND2" class="cls-1" d="M190.29,447.66h5a2.73,2.73,0,0,1,1.91.62,2,2,0,0,1,.66,1.52,2,2,0,0,1-.47,1.31,2.17,2.17,0,0,1-.93.57,2.41,2.41,0,0,1,1.36.77,2.09,2.09,0,0,1,.44,1.36,2.28,2.28,0,0,1-.31,1.2,2.31,2.31,0,0,1-.85.85,3,3,0,0,1-1,.28c-.6.07-1,.11-1.19.11h-4.58ZM193,451h1.15a1.37,1.37,0,0,0,.87-.21.78.78,0,0,0,.24-.62.76.76,0,0,0-.24-.59,1.34,1.34,0,0,0-.85-.21H193Zm0,3.38h1.35a1.45,1.45,0,0,0,1-.25.84.84,0,0,0,.28-.65.74.74,0,0,0-.28-.61,1.53,1.53,0,0,0-1-.23H193Zm6.31-2.45a4.07,4.07,0,0,1,4.44-4.44,4.46,4.46,0,0,1,3.3,1.15,4.31,4.31,0,0,1,1.16,3.22,5.37,5.37,0,0,1-.5,2.47,3.55,3.55,0,0,1-1.47,1.5,4.8,4.8,0,0,1-2.39.54,5.46,5.46,0,0,1-2.4-.46,3.57,3.57,0,0,1-1.54-1.47A4.81,4.81,0,0,1,199.28,452Zm2.66,0a2.91,2.91,0,0,0,.48,1.87,1.66,1.66,0,0,0,1.32.56,1.62,1.62,0,0,0,1.32-.55,3.2,3.2,0,0,0,.47-2,2.62,2.62,0,0,0-.49-1.77,1.66,1.66,0,0,0-1.33-.56,1.63,1.63,0,0,0-1.29.57A2.89,2.89,0,0,0,201.94,452Zm6-4.32h2.95l1.73,2.9,1.74-2.9h2.93l-3.34,5v3.59h-2.66v-3.59Zm10.21,0h6.57v1.85h-3.9V451h3.33v1.73h-3.33v3.51h-2.67Zm8,8.59v-8.59h4.43a6.48,6.48,0,0,1,1.88.21,2,2,0,0,1,1,.79,2.33,2.33,0,0,1,.4,1.39,2.39,2.39,0,0,1-.3,1.23,2.26,2.26,0,0,1-.84.84,3.19,3.19,0,0,1-.93.34,2.82,2.82,0,0,1,.69.32,2.39,2.39,0,0,1,.42.45,4.11,4.11,0,0,1,.38.53l1.28,2.49h-3l-1.42-2.62a2,2,0,0,0-.48-.66,1.07,1.07,0,0,0-.65-.2h-.23v3.48Zm2.67-5.11H230a3.62,3.62,0,0,0,.7-.11.73.73,0,0,0,.43-.27.82.82,0,0,0,.17-.5.78.78,0,0,0-.27-.64,1.56,1.56,0,0,0-1-.22h-1.16Zm6.74-3.48h2.66v8.59h-2.66Zm4.55,0h7.12v1.84h-4.46v1.36h4.14v1.75h-4.14v1.7h4.59v1.94h-7.25Zm8.69,0h2.48l3.24,4.76v-4.76H257v8.59h-2.5l-3.22-4.71v4.71h-2.5Zm10,0h3.94a4.68,4.68,0,0,1,1.88.32,3,3,0,0,1,1.19.91,3.72,3.72,0,0,1,.68,1.38,6.34,6.34,0,0,1,.21,1.66,5.8,5.8,0,0,1-.31,2.14,3.68,3.68,0,0,1-.87,1.27,2.8,2.8,0,0,1-1.2.68,6,6,0,0,1-1.58.23h-3.94Zm2.65,1.95v4.69h.65a2.83,2.83,0,0,0,1.19-.18,1.34,1.34,0,0,0,.55-.65,4.06,4.06,0,0,0,.2-1.49,2.88,2.88,0,0,0-.45-1.87,1.91,1.91,0,0,0-1.48-.5ZM189.4,453.5v-.72h27.85v.72Z"/>
  <path id="YOU5" class="cls-1" d="M335.11,346.55H345l5.78,9.65,5.78-9.65h9.79l-11.15,16.62v12h-8.87v-12Zm30.52,14.32q0-7,3.91-10.9t10.9-3.91q7.15,0,11,3.84t3.88,10.74a17.53,17.53,0,0,1-1.7,8.22,12,12,0,0,1-4.88,5,16.2,16.2,0,0,1-8,1.78,18.33,18.33,0,0,1-8-1.54,12.06,12.06,0,0,1-5.15-4.88A16.1,16.1,0,0,1,365.63,360.87Zm8.86,0c0,2.89.54,5,1.62,6.23a6.1,6.1,0,0,0,8.8,0q1.57-1.85,1.57-6.65,0-4-1.64-5.9a5.57,5.57,0,0,0-4.42-1.86,5.41,5.41,0,0,0-4.31,1.89Q374.49,356.54,374.49,360.91Zm44.27-14.36h8.84v17a14.54,14.54,0,0,1-.79,4.79,10.41,10.41,0,0,1-2.49,3.94,10,10,0,0,1-3.55,2.37,18,18,0,0,1-6.2.95,38,38,0,0,1-4.56-.29,12.08,12.08,0,0,1-4.14-1.16,10.44,10.44,0,0,1-3-2.47,9,9,0,0,1-1.88-3.29,17,17,0,0,1-.82-4.84v-17H409V364a5,5,0,0,0,1.3,3.65,5.6,5.6,0,0,0,7.2,0,4.94,4.94,0,0,0,1.3-3.67Z"/>
  <path id="BITCH" class="cls-1" d="M387.65,430h12.7a6.23,6.23,0,0,1,4.88,1.89,6.71,6.71,0,0,1,1.7,4.66,6.6,6.6,0,0,1-1.22,4,5.42,5.42,0,0,1-2.36,1.76,6.1,6.1,0,0,1,3.48,2.34,7.36,7.36,0,0,1,1.11,4.17,8.28,8.28,0,0,1-.79,3.68A6.48,6.48,0,0,1,405,455a6.24,6.24,0,0,1-2.58.87,26.12,26.12,0,0,1-3,.35H387.65Zm6.84,10.32h2.95a3,3,0,0,0,2.21-.66,2.6,2.6,0,0,0,.63-1.89,2.46,2.46,0,0,0-.63-1.79,2.92,2.92,0,0,0-2.16-.65h-3Zm0,10.33H398a3.4,3.4,0,0,0,2.48-.74,2.82,2.82,0,0,0,.72-2,2.53,2.53,0,0,0-.72-1.88,3.48,3.48,0,0,0-2.49-.71h-3.45ZM411.76,430h6.8v26.3h-6.8Zm10.13,0h20.62v6.5h-6.92v19.8h-6.78v-19.8h-6.92Zm37.26,15.54,6,2.15a14.47,14.47,0,0,1-1.89,5,8.57,8.57,0,0,1-3.2,3,10.24,10.24,0,0,1-4.86,1,12.07,12.07,0,0,1-5.84-1.24,10.17,10.17,0,0,1-3.92-4.39,17.19,17.19,0,0,1-1.65-8q0-6.53,2.9-10a10,10,0,0,1,8.2-3.5,9.81,9.81,0,0,1,6.52,2,12.09,12.09,0,0,1,3.53,6.18l-6,1.59a7,7,0,0,0-.66-1.76,4.15,4.15,0,0,0-1.39-1.43,3.45,3.45,0,0,0-1.85-.5,3.86,3.86,0,0,0-3.53,2.22,11,11,0,0,0-.93,5.18q0,4.36,1.11,6a3.57,3.57,0,0,0,3.12,1.62,3.46,3.46,0,0,0,2.94-1.31A8.93,8.93,0,0,0,459.15,445.49ZM468.42,430h6.79v9.21h7.41V430h6.82v26.3h-6.82V445.61h-7.41v10.64h-6.79Z"/>
</svg>
